<?xml version="1.0" encoding="utf-8"?>
<!-- Generator: Adobe Illustrator 24.0.3, SVG Export Plug-In . SVG Version: 6.00 Build 0)  -->
<svg version="1.1" id="Calque_1" xmlns="http://www.w3.org/2000/svg" xmlns:xlink="http://www.w3.org/1999/xlink" x="0px" y="0px"
	 viewBox="0 0 41 28.3" style="enable-background:new 0 0 41 28.3;" xml:space="preserve">
<style type="text/css">
	.st0{fill:none;stroke:#FFFFFF;stroke-width:0.5;stroke-miterlimit:10;}
	.st1{fill:#FFFFFF;}
	.st2{fill:none;stroke:#FFFFFF;stroke-miterlimit:10;}
</style>
<title>abeille</title>
<g id="Calque_2_1_">
	<g id="Calque_1-2">
		<path class="st0" d="M25.4,21.2v0.1c0,0.2-0.1,0.8-0.2,1.4c-0.4,2-1.6,5.3-4.5,5.3C16,28,16,21.5,16,21.1l0,0
			c0-1.9,1.1-3.6,2.8-4.3c-2.4-1.1-3.5-3.9-2.4-6.3s3.9-3.5,6.3-2.4s3.3,4,2.3,6.4c-0.5,1.1-1.3,1.9-2.4,2.4
			C24.3,17.6,25.4,19.3,25.4,21.2z"/>
		<path class="st1" d="M16.4,17.1c0,0-11.3-8.8-13.1,0C3.3,17.1,3.8,26.4,16.4,17.1z"/>
		<path class="st1" d="M24.6,17.1c0,0,11.3-8.8,13.1,0C37.7,17.1,37.2,26.4,24.6,17.1z"/>
		<path class="st2" d="M21.2,7.9c0,0-0.7-2.9,3.4-2.9"/>
		<path class="st2" d="M20.1,7.9c0,0,0.8-2.9-3.4-2.9"/>
		<path class="st1" d="M25,23.8c-0.1,0.2-0.2,0.5-0.3,0.7c-1.2-0.9-2.7-1.4-4.2-1.4c-1.4,0-2.9,0.4-4,1.3c-0.1-0.3-0.1-0.5-0.2-0.8
			c1.2-0.8,2.7-1.3,4.2-1.3C22.1,22.4,23.7,22.9,25,23.8z"/>
		<path class="st1" d="M24.3,25.7c-0.1,0.2-0.2,0.3-0.3,0.5c-0.9-0.9-2.1-1.4-3.4-1.4c-1.2,0-2.5,0.4-3.3,1.3
			c-0.1-0.1-0.2-0.3-0.3-0.5c0.9-0.9,2.2-1.4,3.6-1.4C22,24.2,23.3,24.7,24.3,25.7z"/>
	</g>
</g>
</svg>
