<svg xmlns="http://www.w3.org/2000/svg" xmlns:xlink="http://www.w3.org/1999/xlink" viewBox="0 0 667.98 667.98"><defs><style>.cls-1{fill:#fff;}.cls-2{fill:#ff6d00;}.cls-3,.cls-4{fill:none;}.cls-4{stroke-linecap:round;stroke-linejoin:round;stroke-width:3px;stroke:url(#Dégradé_sans_nom_105);}</style><linearGradient id="Dégradé_sans_nom_105" x1="247.61" y1="195.57" x2="293.5" y2="195.57" gradientUnits="userSpaceOnUse"><stop offset="0" stop-color="#fff"/><stop offset="0" stop-color="#fff" stop-opacity="0"/><stop offset="0.14" stop-color="#fff" stop-opacity="0.02"/><stop offset="0.31" stop-color="#fff" stop-opacity="0.07"/><stop offset="0.48" stop-color="#fff" stop-opacity="0.16"/><stop offset="0.66" stop-color="#fff" stop-opacity="0.29"/><stop offset="0.85" stop-color="#fff" stop-opacity="0.45"/><stop offset="1" stop-color="#fff" stop-opacity="0.6"/></linearGradient></defs><title>Fichier 13</title><g id="Calque_2" data-name="Calque 2"><g id="Calque_1-2" data-name="Calque 1"><g id="AVION"><path class="cls-1" d="M301.8,182a4,4,0,0,1,1.47-.09H343s.13,7,.13,7H322.3a47.29,47.29,0,0,1-10.44-1.55c-1.76-.41-3.51-.9-5.22-1.48-1-.34-2-.66-3-1.06-.77-.32-2.75-.88-2.53-2.05A1.1,1.1,0,0,1,301.8,182Z"/><path class="cls-1" d="M353.85,187.65a7.48,7.48,0,0,1-4.33,1.28c-2.6,0-6.35,0-6.35,0l-.13-7a30.17,30.17,0,0,1,3.13.32,8.57,8.57,0,0,1,4,1.33l.17.15-1.57.2-.23,1.31,3.27-.19c.32.22.65.42,1,.61C354.56,186.66,353.85,187.65,353.85,187.65Z"/><path d="M351.79,185.06l-3.27.19.23-1.31,1.57-.2c.29.25.52.56.82.81A4.56,4.56,0,0,0,351.79,185.06Z"/><polygon class="cls-2" points="302.09 171.37 305.22 171.37 313.81 180.98 315.63 181.92 304.71 181.94 302.09 171.37"/><polygon class="cls-2" points="303.4 183.94 309.37 183.94 309.09 184.42 301.46 184.79 303.4 183.94"/><polygon class="cls-2" points="325.42 190.39 331.83 186.78 346.74 186.78 346.74 187.54 325.42 190.39"/><rect x="317.27" y="183.69" width="0.66" height="1.31"/><rect x="320.32" y="183.69" width="0.66" height="1.31"/><rect x="318.29" y="183.69" width="0.66" height="1.31"/><rect x="321.33" y="183.69" width="0.66" height="1.31"/><rect x="319.3" y="183.69" width="0.66" height="1.31"/><rect x="322.35" y="183.69" width="0.66" height="1.31"/><rect x="325.39" y="183.69" width="0.66" height="1.31"/><rect x="323.36" y="183.69" width="0.66" height="1.31"/><rect x="326.41" y="183.69" width="0.66" height="1.31"/><rect x="324.38" y="183.69" width="0.66" height="1.31"/><rect x="331.68" y="183.69" width="0.66" height="1.31"/><rect x="334.72" y="183.69" width="0.66" height="1.31"/><rect x="332.69" y="183.69" width="0.66" height="1.31"/><rect x="335.74" y="183.69" width="0.66" height="1.31"/><rect x="333.71" y="183.69" width="0.66" height="1.31"/><rect x="336.75" y="183.69" width="0.66" height="1.31"/><rect x="339.8" y="183.69" width="0.66" height="1.31"/><rect x="337.77" y="183.69" width="0.66" height="1.31"/><rect x="340.81" y="183.69" width="0.66" height="1.31"/><rect x="338.78" y="183.69" width="0.66" height="1.31"/><rect x="341.83" y="183.69" width="0.66" height="1.31"/><rect x="342.84" y="183.69" width="0.66" height="1.31"/><rect x="343.86" y="183.69" width="0.66" height="1.31"/><path id="TERRE" class="cls-3" d="M511.76,296c0,94.81-89.05,209.66-183.86,209.66a171.68,171.68,0,1,1,0-343.35C422.71,162.32,511.76,201.2,511.76,296Z"/><path class="cls-4" d="M292,185.44s-25.24,4.82-42.89,20.26"/></g><rect class="cls-3" width="667.98" height="667.98"/></g></g></svg>