<?xml version="1.0" encoding="utf-8"?>
<!-- Generator: Adobe Illustrator 24.0.3, SVG Export Plug-In . SVG Version: 6.00 Build 0)  -->
<svg version="1.1" id="Calque_1" xmlns="http://www.w3.org/2000/svg" xmlns:xlink="http://www.w3.org/1999/xlink" x="0px" y="0px"
	 viewBox="0 0 41 28.3" style="enable-background:new 0 0 41 28.3;" xml:space="preserve">
<style type="text/css">
	.st0{fill-rule:evenodd;clip-rule:evenodd;fill:#EDCEA2;}
	.st1{fill-rule:evenodd;clip-rule:evenodd;fill:#EDCEA2;stroke:#FFFFFF;stroke-width:0.25;stroke-miterlimit:10;}
	.st2{fill-rule:evenodd;clip-rule:evenodd;fill:#FFFFFF;}
	.st3{opacity:0.62;fill-rule:evenodd;clip-rule:evenodd;fill:#EDCEA2;}
	.st4{fill-rule:evenodd;clip-rule:evenodd;fill:#EFAE40;}
</style>
<title>abeille</title>
<g>
	<path class="st0" d="M23.5,9.6c0,0-1.5-2.3-2.2-2.9c-0.7-0.7-2.2,2.3-1.8,3.7C20,11.8,23.5,9.6,23.5,9.6z"/>
	<path class="st1" d="M8,11.7c0,0-3,4,3.9,11.2s20.5,3.7,21.7-1.6C34.8,16,8,11.7,8,11.7z"/>
	<path class="st2" d="M9.6,5.1c0,0-0.8,6,5.6,5.5s10.3-4.3,14.3-1.5c4,2.8,6.8,8.3,5.1,11.1c-1.7,2.8-12.9,7-20.2,2.6
		C7.3,18.5,4.4,11.4,8.4,5.3c0,0,0.4-0.6,0.9-0.6C9.6,4.6,9.7,5,9.6,5.1z"/>
	<path class="st2" d="M16.8,10.4c5.5-0.9,9.1-3.9,12.8-1.3c4,2.8,6.8,8.3,5.1,11.1c-1,1.6-5,3.6-9.7,4.3c3-1.1,1.5-5-0.2-9.5
		C23,10.4,16.8,10.4,16.8,10.4L16.8,10.4z"/>
	<path class="st3" d="M9.6,5.1c0,0-0.6,4.9,3.9,5.5l0,0c0,0-5.1-0.4-4.8-5.7C8.9,4.8,9,4.7,9.2,4.7C9.6,4.6,9.7,5,9.6,5.1z"/>
	<path class="st2" d="M9.6,5.3c0,0,0.1-0.5,0.9-0.7c0.7-0.2,3.7,1,5.4-2.3c0,0,0.1-0.3-0.2-0.2c-0.4,0.1-1.2,0.8-3.2,0.2
		C10.4,1.8,9.6,3,9.6,3S9.3,2.2,8.3,2.1C7.4,2,6.1,2.5,5.6,2.1c0,0-0.3-0.1-0.2,0.3c0.2,0.4,0.7,1.8,1.7,2.1c1,0.3,1.2,0.7,1,1.1
		L9.6,5.3z"/>
	<path class="st3" d="M9.6,5.3c0,0,0.1-0.5,0.9-0.7c0.7-0.2,3.6,0.9,5.4-2.2c-2,2.3-4.2,1-5.6,1.2C8.9,3.9,8.7,4.9,8.7,4.9
		c0,0.2,0,0.4,0,0.6L9.6,5.3z"/>
	<path class="st2" d="M15.2,22.1c0,0-4.9,0.9-6.4,2.3c-1.5,1.4,5.7,5.1,9.1-0.5L15.2,22.1z"/>
	<path class="st4" d="M22.6,18.5c0.1,0.1,0.1,0.2,0,0.3c-0.1,0.1-1.4,0.4-2,1.4c0,0-0.1,0.1-0.1,0c-0.1,0-0.3-1.2,1.2-2
		C22.1,18,22.4,18.2,22.6,18.5z"/>
	<path class="st4" d="M23.6,23.3c0.4-0.2,0.5-0.9,0.2-1.7c-0.3-0.7-0.9-1.1-1.4-0.9c-0.4,0.2-0.5,0.9-0.2,1.7
		C22.5,23,23.2,23.5,23.6,23.3z"/>
</g>
</svg>
