<?xml version="1.0" encoding="utf-8"?>
<!-- Generator: Adobe Illustrator 24.0.3, SVG Export Plug-In . SVG Version: 6.00 Build 0)  -->
<svg version="1.1" id="Calque_1" xmlns="http://www.w3.org/2000/svg" xmlns:xlink="http://www.w3.org/1999/xlink" x="0px" y="0px"
	 viewBox="0 0 41 28.3" style="enable-background:new 0 0 41 28.3;" xml:space="preserve">
<style type="text/css">
	.st0{fill:#EDCEA2;}
	.st1{fill:#FFFFFF;}
	.st2{fill:#EFAE40;}
	.st3{fill:none;stroke:#EFAE40;stroke-width:0.25;stroke-miterlimit:10;}
	.st4{fill:none;stroke:#EDCEA2;stroke-width:0.25;stroke-miterlimit:10;}
</style>
<title>abeille</title>
<g>
	<path class="st0" d="M22.6,3c-0.1,0.1,0.2-0.4,0.3-0.6C23,2.2,24.1,1,24.4,1.4c0.2,0.3,0.5,2.6,0.2,2.8C24.1,4.4,22.6,3,22.6,3z"/>
	<path class="st0" d="M12,22.2c0.1-0.1-0.5,0-0.6,0c-0.4,0-0.9,0-1.2-0.3C9.3,21.2,8.8,20,9,18.8c0.7-4.3,4.7-7.4,4.3-12
		c-0.2-1.6-1.2-3.2-2.7-4C10,2.6,8.8,2.5,8.3,3.1C7.7,3.9,8.1,4.8,8.6,5.6C9.4,6.7,10,8.2,9.8,9.6c-0.2,1.5-0.6,2.9-1.1,4.3
		c-0.7,2.2-1.9,4.2-1.4,6.7c0.4,2.2,3,4.1,5.1,2.6c0.2-0.2,0.3-0.6,0.1-0.8C12.3,22.1,12,22.3,12,22.2z"/>
	<path class="st1" d="M25.8,16c-0.6,3.4-2.2,6.8-5.2,8.5c-0.2,0.1-0.4,0.2-0.6,0.3c-0.1,0.1-0.2,0.1-0.4,0.2
		c-0.1,0.1-0.3,0.1-0.4,0.2c-0.5,0.2-1,0.3-1.6,0.4c-0.8,0.1-1.8,0.2-2.6,0c-0.7-0.1-1.5-0.3-2.1-0.8c-0.7-0.6-1.2-1-1.7-1.7
		c-0.5-0.7-0.2-2.7,0.1-3.4c0.3-0.6,0.6-1.2,1-1.8c0.1-0.1,0.1-0.2,0.2-0.3c1.3-1.7,3.1-3.2,4-5.3c0.1-0.1,0.1-0.2,0.2-0.4
		c0.3-0.7,0.6-1.4,0.7-2.3c0.1-0.7-0.1-1.5-0.1-2.1l0.2,1.3c0-0.3,0.3-1.3,0.6-1.4c0.3-0.1,1.4,0.4,1.8,0.5c1.4,0.2,3.9-0.4,4.8,1.1
		c0.1,0.2,0.2,0.7,0.3,1.1c0,0.3,0.1,0.6,0.1,0.8c0,0.3,0.1,0.5,0.1,0.7C25.5,13,26.1,14.4,25.8,16z"/>
	<path class="st1" d="M13.5,19.8c-0.2-0.2,0.1-0.6,0.2-0.9c0.2-0.4,0.6-0.8,1-1c1.2-0.5,3.1,0,3.8,1.1c0.7,1,0.9,3,0.1,4
		c-0.4,0.5-0.6,0.9-1.1,1.4c-0.1,0.1-0.3,0.4-0.2,0.5c0,0,0.6,0.1,0.7,0.1c0.7,0.1,1.6,0.3,2.2,0.7c0.2,0.2,0.5,0.6,0.3,0.9
		c-0.5,0.7-2.1,0.4-2.8,0.3c-1.9-0.3-3.7-0.3-5.3-1.6c-0.4-0.3-0.8-0.9-1-1.3c-0.7-1.3-0.9-3,0.1-5.1c0.2-0.3,1.2,1.2,1.5,1
		C13.1,20,13.3,19.9,13.5,19.8C13.5,19.8,13.6,19.8,13.5,19.8z"/>
	<path class="st0" d="M25.8,15.4c0.5,0.6-0.5,3-0.6,3.7c-0.2,1.2-0.2,2.8,0.1,4.1c0,0.2,0.2,0.9,0.4,1c0.2,0.1,0.6,0,0.8,0
		c0.7,0.1,1.1,0.8,0.6,1.4c-0.5,0.6-1.4,0.4-2.1,0.3c-1.2-0.2-2.4-2.6-2.5-3.7c-0.1-0.8-0.3-1.7-0.2-2.5c0.1-0.9,1.2-1.7,1.9-2.1
		c0.2-0.1,0.5-0.2,0.7-0.3C25.3,17,25.6,15.1,25.8,15.4z"/>
	<path class="st1" d="M24.8,17c-0.1-0.1,0,0.4,0,0.4c0,0.3,0,0.5,0,0.7C24.6,19,24.3,20,24,20.6c-0.6,1.3-0.5,2.1-0.6,3.2
		c0,0.3-0.2,0.9,0.1,1.1c0.5,0.5,1.6,0.2,1.7,1.1c0.2,1.3-2.1,1-2.7,0.9c-0.8-0.2-1.3-1.4-1.5-2c-1-2.4-2.5-4.7-0.9-7.2
		c0.7-1.1,2.4-1.6,3.6-1.6c0.3,0,0.8,0,1,0.3c0.2,0.2,0.1,0.3,0.2,0.5C24.8,17.1,24.9,17.1,24.8,17z"/>
	<path class="st1" d="M25.6,17.6c-0.6,1.6-1.6,3-2.9,4.1c0.5-1.5,0.1-3.2,0.5-4.7c0.2-0.9,0.6-1.6,1.1-2.4c0.2-0.4,0.4-0.9,0.7-1.2
		c0.2-0.3,0.5-0.2,0.7,0.2c0.4,0.8,0.3,1.8,0.2,2.7C25.9,16.6,25.8,17.1,25.6,17.6z"/>
	<path class="st1" d="M19.5,3.6c0,0,0.3-0.2,0.5-0.3c0.3-0.2,0.6-0.4,1-0.4c1-0.3,2.7-0.2,3.5,0.8c0.6,0.7,0.7,1.4,1,2.3
		c0.2,0.5,0.4,0.8,0.6,1.3c0.1,0.4-0.1,0.9-0.2,1.2c-0.5,1.2-1,1.9-2.1,2.6c-2,1.2-6.1-0.7-6.5-3c-0.2-1.2,0.2-2.5,0.9-3.5
		c0.2-0.3,0.6-0.6,1-0.7C19.2,3.8,19.6,3.5,19.5,3.6z"/>
	<path class="st1" d="M20.3,4c-0.2-0.1-0.2-0.5-0.4-0.7c-0.5-0.6-1.4-1.9-2.1-2.1c-0.5-0.1-0.8,0.9-0.9,1.3c-0.2,0.8-0.2,2,0,2.8
		c0.1,0.2,0,0.8,0.3,0.8c0.3,0.1,1.6-1,1.9-1.2C19.3,4.9,20.3,4,20.3,4z"/>
	<path class="st2" d="M24.8,7.2c-0.1-0.1-0.3,0-0.5,0c-1.3,0-0.2,1,0.1,0.9c0.2,0,0.3-0.4,0.4-0.6C24.9,7.3,24.9,7.3,24.8,7.2z"/>
	<path class="st2" d="M22.2,6.7c0,0.2-0.2,0.4-0.3,0.4c-0.2,0-0.3-0.2-0.3-0.4c0-0.2,0.2-0.4,0.3-0.4C22.1,6.2,22.2,6.4,22.2,6.7z"
		/>
	<path class="st2" d="M25.3,6.1c0,0.2-0.2,0.4-0.3,0.4c-0.2,0-0.3-0.2-0.3-0.4c0-0.2,0.2-0.4,0.3-0.4C25.1,5.6,25.3,5.8,25.3,6.1z"
		/>
	<path class="st0" d="M19.6,25c-0.1,0.1-0.3,0.1-0.4,0.2c-0.1,0-0.1-0.1-0.2-0.1c-0.4-0.2-0.7-0.3-1.1-0.4c0.3-0.6,0.7-1.2,0.9-1.8
		c0.2-0.6,0.1-1.3-0.2-1.9c0.4,0.6,0.7,1.5,0.9,2.2c0.1,0.4,0.2,0.8,0.2,1.2C19.6,24.6,19.6,24.8,19.6,25z"/>
	<path class="st0" d="M25.1,10.8c-0.1,0.1-0.2,0.2-0.3,0.3c-0.8,0.5-1.8,0.7-2.7,0.4c-0.9-0.3-1.6-1-1.9-1.9c0.7,0.6,1.6,1,2.5,1
		c0.7,0.1,1.8-0.1,2.3-0.6C25,10.3,25,10.6,25.1,10.8z"/>
	<path class="st3" d="M24.5,8.4c0,0.2,0.1,0.3,0.2,0.4c0.2,0.2,0.5,0.2,0.8,0.1c0.2-0.1,0.4-0.4,0.4-0.6"/>
	<path class="st3" d="M24.4,8.3c0,0.2,0,0.4-0.1,0.5c-0.1,0.2-0.3,0.3-0.6,0.4c-0.2,0.1-0.5,0.1-0.7,0.1c-0.3-0.1-0.5-0.4-0.6-0.7"
		/>
	<path class="st4" d="M25.2,7.6c0.6-0.6,1.6-0.9,2.4-0.7"/>
	<path class="st4" d="M25.4,8.2c0.8-0.6,1.9-0.6,2.7-0.1"/>
	<path class="st4" d="M23.1,8c-0.7-0.3-1.6-0.2-2.3,0.1c-0.7,0.3-1.3,1-1.6,1.7"/>
	<path class="st4" d="M23.2,8.7c-0.7,0-1.4,0.2-2,0.6c-0.6,0.4-1,1-1.2,1.6"/>
	<path class="st0" d="M18.2,17.7c-0.4,0.5-0.9,0.8-1.5,0.9c-0.6,0.1-1.2,0.1-1.8,0.1c-0.6-0.1-1.3-0.2-1.8-0.6
		c-0.3-0.2-0.5-0.4-0.7-0.6c1.3-1.7,3.1-3.2,4-5.3c0.1-0.1,0.1-0.2,0.2-0.4c0.3,0.5,0.6,1,0.9,1.5c0.4,0.7,0.8,1.3,1,2.1
		C18.7,16.2,18.6,17.1,18.2,17.7z"/>
</g>
</svg>
