<?xml version="1.0" encoding="utf-8"?>
<!-- Generator: Adobe Illustrator 24.0.3, SVG Export Plug-In . SVG Version: 6.00 Build 0)  -->
<svg version="1.1" id="Calque_1" xmlns="http://www.w3.org/2000/svg" xmlns:xlink="http://www.w3.org/1999/xlink" x="0px" y="0px"
	 viewBox="0 0 41 28.3" style="enable-background:new 0 0 41 28.3;" xml:space="preserve">
<style type="text/css">
	.st0{fill-rule:evenodd;clip-rule:evenodd;fill:#FFFFFF;}
	.st1{fill-rule:evenodd;clip-rule:evenodd;fill:#EDCEA2;}
	.st2{fill-rule:evenodd;clip-rule:evenodd;fill:#EFAE40;}
</style>
<title>abeille</title>
<g>
	<path class="st0" d="M17,3.6c0,0-3.5-1.9-7.4-0.3c-3.9,1.6,3.7,4,5,3.3S17.3,4,17,3.6z"/>
	<path class="st0" d="M24.5,7.7c0,0,2.1,2.7,1.2,6.2c-0.9,3.5-3.8-2.6-3.5-3.8C22.6,8.9,24.1,7.5,24.5,7.7z"/>
	<path class="st0" d="M29.9,6.1c0,0-0.8-3.9-4-5C22.6,0.1,8.2,1.8,12,22.1c0,0,0,0.6,0.5,0.6c0.5,0,0.7-0.2,1.1-1.2
		c0.4-0.9,3.7-11.8,15.9-11.2c0,0,2.8,0.2,3.3-1.3C33.4,7.6,32.6,6.1,29.9,6.1z"/>
	<path class="st1" d="M13.7,21.6c0.4-0.9,3.7-11.8,15.9-11.2c0,0,2.8,0.2,3.3-1.3C33,8.9,33,8.7,33,8.4c0,0-0.3,1.1-2.1,0.7
		C29,8.8,14.8,4.6,13.7,21.6z"/>
	<path class="st1" d="M22.2,11.6c2-0.9,4.4-1.4,7.3-1.2c0,0,2.1,0.1,3-0.8c0,0-0.8,0.6-2.8,0.3c-2.1-0.3-5.7-0.5-7.6,0.7
		c0,0-0.2,0.2-0.1,0.4C22.1,11,22.2,11.3,22.2,11.6z"/>
	<path class="st1" d="M14.6,19.3c0.9-1.9,2.7-4.7,5.6-6.6l0-1l-0.4,1.1l-0.4-0.9C19.5,11.9,15.9,14.3,14.6,19.3L14.6,19.3z"/>
	<path class="st1" d="M23.6,9.3c0,0,0.7,3.9-2,7c-2.7,3.2-2.6-4.7-1.6-5.7C21,9.6,23.3,8.8,23.6,9.3z"/>
	<path class="st1" d="M23.7,10c0.1,1.2,0,4-2,6.4c-0.3,0.3-0.5,0.5-0.7,0.6c2-1.5,1.3-5.7,1.2-6c-0.1-0.2,0.1-0.4,0.1-0.4
		C22.6,10.3,23.1,10.1,23.7,10z"/>
	<path class="st0" d="M13.6,21.8c0,0,0.7,0.6,2,0.8c1.3,0.2,3.3,1.4,3,3.7c0,0,0,0.2-0.3,0.1c-0.3-0.1-0.6-0.5-2.3-0.6
		c-1.6-0.2-2.7-0.6-3-2C12.8,22.3,13.6,21.8,13.6,21.8z"/>
	<path class="st0" d="M13,21.5c0,0-0.7,0.8-2.2,1.2c-1.4,0.4-3.5,2.1-2.8,4.6c0,0,0,0.2,0.3,0c0.3-0.2,0.6-0.6,2.4-1.1
		c1.8-0.5,2.9-1.1,3.1-2.7C14,21.9,13,21.5,13,21.5z"/>
	<path class="st2" d="M26.7,3.2c0,0.1,0,0.2,0,0.3c-0.1,0.1-1.2,0-1.8,0.7c0,0-0.1,0-0.1,0c0,0,0-1,1.4-1.4
		C26.4,2.7,26.6,2.9,26.7,3.2z"/>
	<path class="st2" d="M26.1,4.9c-0.4,0.1-0.6,0.6-0.5,1.3c0.1,0.6,0.5,1.1,0.9,1c0.4-0.1,0.6-0.6,0.5-1.3
		C26.8,5.3,26.5,4.8,26.1,4.9z"/>
</g>
</svg>
