<?xml version="1.0" encoding="utf-8"?>
<!-- Generator: Adobe Illustrator 24.0.3, SVG Export Plug-In . SVG Version: 6.00 Build 0)  -->
<svg version="1.1" id="Calque_1" xmlns="http://www.w3.org/2000/svg" xmlns:xlink="http://www.w3.org/1999/xlink" x="0px" y="0px"
	 viewBox="0 0 41 28.3" style="enable-background:new 0 0 41 28.3;" xml:space="preserve">
<style type="text/css">
	.st0{fill:#EDCEA2;}
	.st1{opacity:0.2;fill:#EDCEA2;}
	.st2{fill:#FFFFFF;}
	.st3{fill:#EFAE40;}
	.st4{fill:#EFAE40;stroke:#FFFFFF;stroke-width:0.1;stroke-miterlimit:10;}
	.st5{opacity:0.2;fill:#EDCEA2;stroke:#FFFFFF;stroke-width:0.1;stroke-miterlimit:10;}
</style>
<title>abeille</title>
<g>
	<g>
		<g>
			<g>
				<path class="st0" d="M21.9,22.1c-0.1,0-0.7,3.3-0.4,4.3c0,0,2,0.8,3.2,0.1c0,0-0.4-2.8-0.2-3.5C24.7,22.2,22.9,21.8,21.9,22.1z"
					/>
				<g>
					<path class="st0" d="M21.7,26.4c0,0,0-1,0.6-0.8c0.6,0.2,0.2,1.1,0.2,1.1S22,26.5,21.7,26.4z"/>
					<path class="st0" d="M22.9,26.7c0,0,0-1,0.5-0.9c0.6,0.1,0.3,1,0.3,1S23.3,26.7,22.9,26.7z"/>
				</g>
				<path class="st1" d="M24.5,22.9c0.2-0.7-1.6-1-2.6-0.8c0,0-0.1,0.3-0.2,0.6l0,0c0,0,1.1-0.8,2.1,0.2c1,1.1,0.2,3.2-0.2,3.4
					c-0.7,0.4-2.1,0-2.1,0s2,0.8,3.2,0.1C24.7,26.4,24.3,23.6,24.5,22.9z"/>
			</g>
			<g>
				<path class="st0" d="M29.7,21.7c-0.1,0-0.4,3.6,0,4.6c0,0,2.1,0.7,3.2-0.1c0,0-0.7-3.1-0.5-3.8C32.4,21.7,30.6,21.5,29.7,21.7z"
					/>
				<g>
					<path class="st0" d="M29.8,26.4c0,0,0-1,0.6-0.9c0.6,0.1,0.3,1.1,0.3,1.1S30.2,26.5,29.8,26.4z"/>
					<path class="st0" d="M31,26.6c0,0-0.1-1,0.4-1c0.6,0.1,0.4,1,0.4,1S31.4,26.7,31,26.6z"/>
				</g>
				<path class="st1" d="M32.3,22.4c0.2-0.7-1.7-1-2.6-0.7c0,0-0.1,0.3-0.2,0.6h0c0,0,1.1-0.9,2.1,0.2c1,1,0.5,3.5,0.1,3.7
					c-0.7,0.4-2.1,0.1-2.1,0.1s2.1,0.7,3.2-0.1C32.8,26.3,32.1,23.1,32.3,22.4z"/>
			</g>
			<g>
				<g>
					<path class="st2" d="M16.8,17.1c0,0,0.4,3.7,2.1,4.9c0,0-0.3,3.1,0.3,4.6c0,0,3.1,0.8,4.5,0.1c0,0,0.4-2.4,0-3.2
						c0,0,2.1,1,3.6,0.1c0,0-0.2,2.2,0.3,3c0,0,3,0.5,4.3,0.1c0,0,0.2-2.7-0.1-3.5c0,0,2.8-3,2.2-7.1c-0.6-4.1-3.4-5-5.3-5.3
						c0,0,0.7-2.3-1.9-4.1c-2.6-1.8-6.3-0.1-6.3-0.1s-3.4-2.9-6.1,0.6c-2,2.6-2.7,6.1-5.1,4.1c-2.4-2-0.8-5.2-0.1-7.1
						c0.8-1.9,1-3,0.4-3.4c-0.4-0.2-0.9-0.2-1,0.2C8.5,1.5,8.4,0.7,7.9,1c-0.4,0.2-0.4,0.8,0,1.3c0.4,0.5,0.2,2.3-1,3.6
						C5.8,7.1,3.4,16.9,16.8,17.1z"/>
				</g>
				<path class="st0" d="M33.2,13.6c-1.1-1.9-3.1-2.5-4.5-2.7c-0.3,2.2-2.4,6.4-4.2,7.9c-1.7,1.5-4-1.8-4-1.8
					c3.8,6.7,7.8-1.9,8.8-3.9C30.4,11,33.1,13.5,33.2,13.6z"/>
				<g>
					<g>
						<g>
							<path class="st3" d="M15.5,16.1c0.1,0,0.1-0.1,0.2,0c0,0,0.3,0.3,0.7,0c0.2-0.1,0.3-0.3,0.4-0.4c0.1-0.2,0-0.4,0-0.4
								c0,0,0-0.1,0.1-0.2c0.1,0,0.1,0,0.2,0c0,0,0.1,0.2,0,0.5c-0.1,0.2-0.2,0.4-0.5,0.5c-0.5,0.3-0.8,0.2-1,0
								C15.4,16.2,15.4,16.2,15.5,16.1C15.5,16.1,15.5,16.1,15.5,16.1z"/>
						</g>
						<g>
							<path class="st3" d="M17.4,10.5C17.3,10.5,17.3,10.5,17.4,10.5c-0.1-0.1-0.4-0.9-1.1-1c-1-0.1-1.1,0.6-1.1,0.6
								c0,0.1-0.1,0.1-0.1,0.1c-0.1,0-0.1-0.1-0.1-0.1c0,0,0.2-0.9,1.3-0.8c0.9,0.1,1.2,1,1.2,1C17.5,10.5,17.4,10.5,17.4,10.5
								C17.4,10.5,17.4,10.5,17.4,10.5z"/>
						</g>
					</g>
				</g>
				<path class="st2" d="M27.7,25c0-1.2,1-2.1,1-2.1c-2.5,1.2-5.7-0.1-5.7-0.1s0.7,1.7,0.2,3.2c-0.4,1.5-4,0.5-4,0.5l0,0
					c0,0,0,0,0,0.1c0.2,0.1,3.1,0.7,4.5,0.1c0,0,0.4-2.4,0-3.2c0,0,2.1,1,3.6,0.1c0,0-0.2,2.2,0.3,3c0,0,3,0.5,4.3,0.1
					C30,27,27.7,26.2,27.7,25z"/>
				<path class="st4" d="M31.1,26.8c0-0.2,0.1-0.9-0.4-0.9c-0.4,0-0.5,0.7-0.5,0.9C30.4,26.8,30.7,26.8,31.1,26.8z"/>
				<path class="st4" d="M29.5,25.9c-0.7,0-0.6,0.7-0.6,0.9c0.3,0,0.6,0.1,0.9,0.1C29.9,26.6,30,25.8,29.5,25.9z"/>
				<path class="st4" d="M28.3,25.8c-0.6,0-0.6,0.6-0.6,0.8c0.1,0,0.5,0.1,0.9,0.1C28.6,26.5,28.8,25.7,28.3,25.8z"/>
				<g>
					<g>
						<path class="st3" d="M20.7,10c0,0,0.4-4,3.7-3.4c3.3,0.6,3.6,5,2.1,6.6c-1.5,1.7-1.4,4.3-2.6,4.4C21,18,20.2,12.6,20.7,10z"/>
						<path class="st0" d="M23.9,17.2c-2.5,0-3.2-4.3-2.7-6.7c0,0,0.4-4,3.7-3.4c0.7,0.1,1.3,0.4,1.7,0.8c-0.5-0.7-1.2-1.2-2.2-1.4
							c-3.3-0.6-3.7,3.4-3.7,3.4c-0.5,2.6,0.3,8,3.3,7.7c0.8-0.1,1-1.4,1.6-2.7C24.9,16.1,24.6,17.2,23.9,17.2z"/>
					</g>
				</g>
				<g>
					<path class="st5" d="M8.5,10.6c0,0-1,0.7-1,1.3c0,0,0.2,0.2,0.3-0.1c0.1-0.3,0.5-0.9,0.9-1L8.5,10.6z"/>
					<path class="st5" d="M9.5,11.5c0,0-0.7,1-0.5,1.6c0,0,0.2,0.1,0.2-0.2c0-0.3,0.1-1,0.5-1.2L9.5,11.5z"/>
				</g>
				<g>
					<path class="st4" d="M22.2,26c-0.5,0-0.5,0.8-0.5,1c0.3,0,0.7,0,1,0C22.7,26.8,22.8,26.1,22.2,26z"/>
					<path class="st4" d="M21.1,26c-0.7,0-0.6,0.7-0.6,0.9c0.3,0,0.6,0.1,0.9,0.1C21.5,26.8,21.6,26,21.1,26z"/>
					<path class="st4" d="M19.9,25.9c-0.5,0-0.6,0.5-0.6,0.8c0.1,0,0.5,0.1,0.9,0.2C20.3,26.6,20.4,25.9,19.9,25.9z"/>
				</g>
			</g>
			<path class="st3" d="M17.2,11.6c-0.1,0-0.1,0-0.1,0.1c0,0.1-0.2,0.2-0.3,0.2c0,0-0.1-0.1-0.1-0.1c0.1-0.1,0.2-0.1,0.2-0.3
				c0,0,0-0.1-0.1-0.1c0,0-0.1,0-0.1,0.1c0,0.1-0.1,0.2-0.2,0.2c-0.1-0.1-0.2-0.1-0.4-0.1c-0.3,0-0.6,0-0.8,0.2
				c-0.3,0.3-0.3,0.7-0.3,0.7c0,0.1,0.1,0.1,0.1,0.2c0.1,0,0.1-0.1,0.2-0.1c0,0,0-0.3,0.2-0.5c0.1-0.1,0.3-0.2,0.5-0.1
				c0.5,0.1,0.6,0.7,0.6,0.7c0,0.1,0.1,0.1,0.1,0.1c0,0,0,0,0,0c0.1,0,0.1-0.1,0.1-0.1c0-0.1,0-0.2-0.1-0.4c0.1,0,0.3-0.1,0.4-0.3
				C17.3,11.7,17.3,11.6,17.2,11.6z"/>
		</g>
	</g>
</g>
</svg>
