<svg xmlns="http://www.w3.org/2000/svg" xmlns:xlink="http://www.w3.org/1999/xlink" viewBox="0 0 667.98 667.98"><defs><style>.cls-1{fill:#131234;stroke:url(#Dégradé_sans_nom_103);}.cls-1,.cls-10,.cls-11,.cls-12,.cls-13,.cls-2,.cls-3,.cls-4,.cls-5,.cls-6,.cls-7,.cls-8,.cls-9{stroke-miterlimit:10;}.cls-10,.cls-11,.cls-12,.cls-13,.cls-2,.cls-3,.cls-4,.cls-5,.cls-6,.cls-7,.cls-8,.cls-9{fill:#fff;}.cls-2{stroke:url(#Dégradé_sans_nom_103-2);}.cls-3{stroke:url(#Dégradé_sans_nom_103-3);}.cls-4{stroke:url(#Dégradé_sans_nom_103-4);}.cls-5{stroke:url(#Dégradé_sans_nom_103-5);}.cls-6{stroke:url(#Dégradé_sans_nom_103-6);}.cls-7{stroke:url(#Dégradé_sans_nom_103-7);}.cls-8{stroke:url(#Dégradé_sans_nom_103-8);}.cls-9{stroke:url(#Dégradé_sans_nom_103-9);}.cls-10{stroke:url(#Dégradé_sans_nom_103-10);}.cls-11{stroke:url(#Dégradé_sans_nom_103-11);}.cls-12{stroke:url(#Dégradé_sans_nom_103-12);}.cls-13{stroke:url(#Dégradé_sans_nom_103-13);}.cls-14{fill:none;}</style><linearGradient id="Dégradé_sans_nom_103" x1="45.07" y1="328.27" x2="633.9" y2="328.27" gradientUnits="userSpaceOnUse"><stop offset="0" stop-color="#fff"/><stop offset="0" stop-color="#fff" stop-opacity="0"/><stop offset="0.14" stop-color="#fff" stop-opacity="0.02"/><stop offset="0.31" stop-color="#fff" stop-opacity="0.07"/><stop offset="0.48" stop-color="#fff" stop-opacity="0.16"/><stop offset="0.66" stop-color="#fff" stop-opacity="0.29"/><stop offset="0.85" stop-color="#fff" stop-opacity="0.45"/><stop offset="1" stop-color="#fff" stop-opacity="0.6"/></linearGradient><linearGradient id="Dégradé_sans_nom_103-2" x1="449.43" y1="126.62" x2="473.63" y2="126.62" xlink:href="#Dégradé_sans_nom_103"/><linearGradient id="Dégradé_sans_nom_103-3" x1="476" y1="416.66" x2="490.27" y2="416.66" xlink:href="#Dégradé_sans_nom_103"/><linearGradient id="Dégradé_sans_nom_103-4" x1="119.01" y1="325.5" x2="133.27" y2="325.5" xlink:href="#Dégradé_sans_nom_103"/><linearGradient id="Dégradé_sans_nom_103-5" x1="506.76" y1="267.3" x2="521.02" y2="267.3" xlink:href="#Dégradé_sans_nom_103"/><linearGradient id="Dégradé_sans_nom_103-6" x1="331.18" y1="538.49" x2="345.44" y2="538.49" xlink:href="#Dégradé_sans_nom_103"/><linearGradient id="Dégradé_sans_nom_103-7" x1="313.79" y1="206.83" x2="328.06" y2="206.83" xlink:href="#Dégradé_sans_nom_103"/><linearGradient id="Dégradé_sans_nom_103-8" x1="269.82" y1="399.57" x2="284.09" y2="399.57" xlink:href="#Dégradé_sans_nom_103"/><linearGradient id="Dégradé_sans_nom_103-9" x1="197.79" y1="139.69" x2="206.29" y2="139.69" xlink:href="#Dégradé_sans_nom_103"/><linearGradient id="Dégradé_sans_nom_103-10" x1="400.55" y1="295.47" x2="408.74" y2="295.47" xlink:href="#Dégradé_sans_nom_103"/><linearGradient id="Dégradé_sans_nom_103-11" x1="357.41" y1="128.07" x2="364.07" y2="128.07" xlink:href="#Dégradé_sans_nom_103"/><linearGradient id="Dégradé_sans_nom_103-12" x1="547.5" y1="296.84" x2="558.43" y2="296.84" xlink:href="#Dégradé_sans_nom_103"/><linearGradient id="Dégradé_sans_nom_103-13" x1="197.79" y1="499.82" x2="206.29" y2="499.82" xlink:href="#Dégradé_sans_nom_103"/></defs><title>Fichier 10</title><g id="Calque_2" data-name="Calque 2"><g id="Calque_1-2" data-name="Calque 1"><g id="ETOILES"><circle id="FOND" class="cls-1" cx="339.48" cy="328.27" r="293.91"/><path class="cls-2" d="M460.85,135.94s1-9.3,8.95-10.48c0,0-9.4-1.08-9.94-10.93,0,0-.08,8.31-8.41,10.7C451.45,125.23,458.49,126.79,460.85,135.94Z"/><path class="cls-3" d="M482.33,420.18s.46-4.26,4.1-4.8a5.25,5.25,0,0,1-4.55-5,5.33,5.33,0,0,1-3.85,4.91S481.25,416,482.33,420.18Z"/><path class="cls-4" d="M125.34,329s.46-4.27,4.1-4.8a5.25,5.25,0,0,1-4.55-5,5.32,5.32,0,0,1-3.85,4.9S124.26,324.84,125.34,329Z"/><path class="cls-5" d="M513.09,270.83s.45-4.27,4.1-4.8a5.26,5.26,0,0,1-4.56-5,5.32,5.32,0,0,1-3.85,4.9S512,266.64,513.09,270.83Z"/><path class="cls-6" d="M337.51,542s.45-4.27,4.1-4.8a5.26,5.26,0,0,1-4.56-5,5.31,5.31,0,0,1-3.85,4.9S336.43,537.83,337.51,542Z"/><path class="cls-7" d="M320.12,210.35s.46-4.26,4.1-4.8a5.25,5.25,0,0,1-4.55-5,5.33,5.33,0,0,1-3.85,4.91S319,206.16,320.12,210.35Z"/><path class="cls-8" d="M276.16,403.09s.45-4.26,4.09-4.8a5.25,5.25,0,0,1-4.55-5,5.31,5.31,0,0,1-3.85,4.9S275.07,398.9,276.16,403.09Z"/><circle class="cls-9" cx="202.04" cy="139.69" r="3.75"/><circle class="cls-10" cx="404.64" cy="295.47" r="3.6"/><circle class="cls-11" cx="360.74" cy="128.07" r="2.83"/><circle class="cls-12" cx="552.96" cy="296.84" r="4.97"/><circle class="cls-13" cx="202.04" cy="499.82" r="3.75"/></g><rect class="cls-14" width="667.98" height="667.98"/></g></g></svg>