<?xml version="1.0" encoding="utf-8"?>
<!-- Generator: Adobe Illustrator 24.0.3, SVG Export Plug-In . SVG Version: 6.00 Build 0)  -->
<svg version="1.1" id="Calque_1" xmlns="http://www.w3.org/2000/svg" xmlns:xlink="http://www.w3.org/1999/xlink" x="0px" y="0px"
	 viewBox="0 0 41 28.3" style="enable-background:new 0 0 41 28.3;" xml:space="preserve">
<style type="text/css">
	.st0{fill-rule:evenodd;clip-rule:evenodd;fill:#FFFFFF;}
	.st1{fill-rule:evenodd;clip-rule:evenodd;fill:#EDCEA2;}
	.st2{fill-rule:evenodd;clip-rule:evenodd;fill:#EFAE40;}
</style>
<title>abeille</title>
<g>
	<path class="st0" d="M27,22.5c0,0,2.3,0.2,3.1,0.3c0.1-0.1,0.2-0.1,0.4-0.1c0.3,0,0.5,0.2,0.5,0.5c0,0.3-0.2,0.5-0.5,0.5
		c-0.2,0-0.4-0.2-0.5-0.4c-0.4,0-0.8,0.1-1,0.1c-0.2,0-0.4,0.3,0.2,0.6c0.3,0.1,0.5,0.2,0.6,0.2c0.1-0.1,0.2-0.2,0.4-0.2
		c0.3,0,0.5,0.2,0.5,0.5s-0.2,0.5-0.5,0.5c-0.3,0-0.5-0.2-0.5-0.5c-0.5-0.1-1.2-0.2-1.5-0.2c-0.4,0-0.4,0.5,0.1,0.8
		c0.1,0.1,0.2,0.2,0.3,0.3c0.1,0,0.2-0.1,0.2-0.1c0.3,0,0.5,0.2,0.5,0.5s-0.2,0.5-0.5,0.5c-0.3,0-0.5-0.2-0.5-0.5c0-0.1,0-0.1,0-0.2
		c-0.9-0.6-3-2-3.2-2.1c-0.2-0.2-0.2-0.8-0.1-0.8C25.3,22.8,27,22.5,27,22.5z"/>
	<path class="st0" d="M25.5,18.8c0,0,0.2-1.9,2.1-2.1c1.9-0.2,5.2,4.9-2.6,6.7L25.5,18.8z"/>
	<path class="st0" d="M24.9,13.5h-8.5l-0.5,2c-2,2.9-0.3,6.9,1.1,7.6c1.4,0.7,3.7,0.7,3.7,0.7s2.3,0,3.7-0.7
		c1.4-0.7,3.1-4.8,1.1-7.6L24.9,13.5z"/>
	<path class="st0" d="M18.7,6.9c0,0,0.1-2.7-0.4-3.9c-0.6-1.2-2.4-2.2-4.7,0.7c-2.3,2.9,0.3,5.6,1.5,5.8C16.1,9.6,18.5,8.2,18.7,6.9
		z"/>
	<path class="st0" d="M22.6,6.9c0,0-0.1-2.7,0.4-3.9c0.6-1.2,2.4-2.2,4.7,0.7s-0.3,5.6-1.5,5.8C25.1,9.6,22.7,8.2,22.6,6.9z"/>
	<path class="st0" d="M28.2,4.5c0.9,1.8,0,3.4-0.9,4.3c-0.2-0.5-0.4-0.9-0.5-1.1c-0.3-0.5,0.1-0.6,0.1-0.6C28.7,7,28.2,4.6,28.2,4.5
		z"/>
	<path class="st0" d="M29.1,14.2c1.6-2.4,0.1-8.8-8.4-8.8s-10.1,6.4-8.4,8.8C14.6,17.8,26.6,17.8,29.1,14.2z"/>
	<path class="st0" d="M29.1,14.2c1.1-1.6,0.8-5-2.2-7.1c0,0-0.3,0.1-0.1,0.6c0.3,0.5,1.8,3.3,0.2,5.6c-1.5,2.3-5.9,3.9-9.4,3.4
		C22.1,17.3,27.5,16.5,29.1,14.2z"/>
	<path class="st1" d="M20.6,23.7c0,0,1.1,0,2.3-0.2c0.5-0.8,1-1.8,1-3c0.1-2.4-2.6-2.9-3-2.9h-0.3h-0.3c-0.4,0-3.1,0.4-3,2.9
		c0,1.2,0.5,2.2,1,3C19.5,23.8,20.6,23.7,20.6,23.7z"/>
	<path class="st1" d="M25,17.5c0,0-1.4,0.7-0.5,2.6c0,0-1.1,2.7-1.3,3.8c0,0-0.6,0.3-1,0.6c-0.1-0.1-0.2-0.1-0.3-0.1
		c-0.3,0-0.6,0.3-0.6,0.6c0,0.3,0.3,0.6,0.6,0.6c0.3,0,0.6-0.3,0.6-0.6c0,0,0-0.1,0-0.1l0.7-0.4c0,0,0.3-0.1,0.4,0.2
		c0,0.2,0,0.4,0,0.6c-0.2,0.1-0.3,0.3-0.3,0.5c0,0.3,0.3,0.6,0.6,0.6c0.3,0,0.6-0.3,0.6-0.6c0-0.2-0.1-0.4-0.3-0.5v-0.6
		c0,0,0-0.4,0.3-0.4c0.1,0,0.5,0.2,0.7,0.3c0,0,0,0.1,0,0.1c0,0.3,0.3,0.6,0.6,0.6c0.3,0,0.6-0.3,0.6-0.6c0-0.3-0.3-0.6-0.6-0.6
		c-0.1,0-0.2,0-0.3,0.1c-0.2-0.2-0.4-0.4-0.5-0.6c-0.1-0.3,1.5-2.4,1.8-3.9C27,18.4,26.2,17.1,25,17.5z"/>
	<path class="st0" d="M14.2,22.5c0,0-2.3,0.2-3.1,0.3c-0.1-0.1-0.2-0.1-0.4-0.1c-0.3,0-0.5,0.2-0.5,0.5c0,0.3,0.2,0.5,0.5,0.5
		c0.2,0,0.4-0.2,0.5-0.4c0.4,0,0.8,0.1,1,0.1c0.2,0,0.4,0.3-0.2,0.6c-0.3,0.1-0.5,0.2-0.6,0.2C11.2,24.1,11.1,24,11,24
		c-0.3,0-0.5,0.2-0.5,0.5s0.2,0.5,0.5,0.5c0.3,0,0.5-0.2,0.5-0.5c0.5-0.1,1.2-0.2,1.5-0.2c0.4,0,0.4,0.5-0.1,0.8
		c-0.1,0.1-0.2,0.2-0.3,0.3c-0.1,0-0.2-0.1-0.2-0.1c-0.3,0-0.5,0.2-0.5,0.5s0.2,0.5,0.5,0.5s0.5-0.2,0.5-0.5c0-0.1,0-0.1,0-0.2
		c0.9-0.6,3-2,3.2-2.1c0.2-0.2,0.2-0.8,0.1-0.8C15.9,22.8,14.2,22.5,14.2,22.5z"/>
	<path class="st0" d="M15.7,18.8c0,0-0.2-1.9-2.1-2.1c-1.9-0.2-5.2,4.9,2.6,6.7L15.7,18.8z"/>
	<g>
		<path class="st2" d="M24.3,3.4c-0.1,0.2,0,0.3,0.1,0.4c0.1,0.1,1.8,0,2.8,0.9c0,0,0.1,0.1,0.2,0c0.1-0.1,0-1.5-2.1-2
			C24.8,2.6,24.4,3,24.3,3.4z"/>
		<path class="st2" d="M25.3,5.5c0.6,0.1,1,0.9,0.8,1.9C26,8.3,25.4,9,24.8,9c-0.6-0.1-1-0.9-0.8-1.9C24.1,6.1,24.7,5.4,25.3,5.5z"
			/>
		<path class="st2" d="M16.9,3.4c0.1,0.2,0,0.3-0.1,0.4c-0.1,0.1-1.8,0-2.8,0.9c0,0-0.1,0.1-0.2,0c-0.1-0.1,0-1.5,2.1-2
			C16.4,2.6,16.8,3,16.9,3.4z"/>
		<path class="st2" d="M15.9,5.5c-0.6,0.1-1,0.9-0.8,1.9c0.1,1,0.7,1.7,1.3,1.6c0.6-0.1,1-0.9,0.8-1.9C17.1,6.1,16.5,5.4,15.9,5.5z"
			/>
	</g>
	<path class="st1" d="M16.2,17.5c0,0,1.4,0.7,0.5,2.6c0,0,1.1,2.7,1.3,3.8c0,0,0.6,0.3,1,0.6c0.1-0.1,0.2-0.1,0.3-0.1
		c0.3,0,0.6,0.3,0.6,0.6c0,0.3-0.3,0.6-0.6,0.6c-0.3,0-0.6-0.3-0.6-0.6c0,0,0-0.1,0-0.1L18,24.4c0,0-0.3-0.1-0.4,0.2
		c0,0.2,0,0.4,0,0.6c0.2,0.1,0.3,0.3,0.3,0.5c0,0.3-0.3,0.6-0.6,0.6c-0.3,0-0.6-0.3-0.6-0.6c0-0.2,0.1-0.4,0.3-0.5v-0.6
		c0,0,0-0.4-0.3-0.4c-0.1,0-0.5,0.2-0.7,0.3c0,0,0,0.1,0,0.1c0,0.3-0.3,0.6-0.6,0.6c-0.3,0-0.6-0.3-0.6-0.6c0-0.3,0.3-0.6,0.6-0.6
		c0.1,0,0.2,0,0.3,0.1c0.2-0.2,0.4-0.4,0.5-0.6c0.1-0.3-1.5-2.4-1.8-3.9C14.2,18.4,15.1,17.1,16.2,17.5z"/>
	<path class="st2" d="M25.9,12.1C25.9,12.1,25.9,12.1,25.9,12.1c0.2,0,0.1,0.3,0.1,0.3c0,0.1,0,0.1,0.1,0.1c0.1,0,0.3-0.4,0.2-0.7
		c-0.1-0.3-0.6-0.4-0.6-0.3c0,0.1,0,0.1,0,0.1c0.2,0.1,0.1,0.3,0.1,0.3c-2.9,1.6-7.4,1.6-10.3,0c0,0,0-0.2,0.1-0.3c0,0,0,0,0-0.1
		c0-0.1-0.5,0-0.6,0.3c-0.1,0.3,0.1,0.7,0.2,0.7c0.1,0,0.1,0,0.1-0.1c0-0.1-0.1-0.3,0-0.3c0,0,0,0,0,0C18.4,14,22.8,14,25.9,12.1z"
		/>
</g>
</svg>
