<svg xmlns="http://www.w3.org/2000/svg" xmlns:xlink="http://www.w3.org/1999/xlink" viewBox="0 0 667.98 667.98"><defs><style>.cls-1{fill:url(#Dégradé_sans_nom_81);}.cls-2{fill:#3d3d3d;}.cls-3{fill:#4a4b4c;}.cls-4{fill:#3a3a3a;}.cls-5{fill:#727272;}.cls-6{fill:none;}</style><linearGradient id="Dégradé_sans_nom_81" x1="102.33" y1="345.96" x2="428.91" y2="345.96" gradientUnits="userSpaceOnUse"><stop offset="0" stop-color="#fff"/><stop offset="0" stop-color="#fff" stop-opacity="0.15"/><stop offset="0.86" stop-color="#fff" stop-opacity="0.15"/><stop offset="1" stop-color="#fff" stop-opacity="0.15"/></linearGradient></defs><title>Fichier 15</title><g id="Calque_2" data-name="Calque 2"><g id="Calque_1-2" data-name="Calque 1"><g id="HUBLOT"><path class="cls-1" d="M428.91,543.78a233.32,233.32,0,0,1-92.25,18.87c-129.42,0-234.33-104.91-234.33-234.33A234.16,234.16,0,0,1,213,129.26,272.24,272.24,0,0,0,173.5,270.88C173.5,415.85,286.29,534.48,428.91,543.78Z"/><path class="cls-2" d="M551.09,256.43a241.18,241.18,0,0,1,9.11,65.9c0,129.42-101.71,234.33-227.2,234.33S105.79,451.75,105.79,322.33a240.9,240.9,0,0,1,9.09-65.81,233.56,233.56,0,0,0-16.22,85.81c0,129.42,104.92,234.33,234.34,234.33S567.33,471.75,567.33,342.33A233.8,233.8,0,0,0,551.09,256.43Z"/><path class="cls-2" d="M608.59,449.59a296.64,296.64,0,0,0,19.88-107.1c0-163.63-132.18-296.28-295.23-296.28S38,178.86,38,342.49A297.25,297.25,0,0,0,49.74,425.4a295.94,295.94,0,0,1-16.47-97.64C33.27,163,167.91,29.38,334,29.38S634.71,163,634.71,327.76A295.35,295.35,0,0,1,608.59,449.59Z"/><path class="cls-3" d="M333,46C169.38,46,36.73,178.69,36.73,342.32S169.38,638.6,333,638.6,629.29,506,629.29,342.32,496.64,46,333,46Zm0,530.61c-129.42,0-234.34-104.91-234.34-234.33S203.59,108,333,108,567.34,212.9,567.34,342.32,462.43,576.65,333,576.65Z"/><circle class="cls-4" cx="331.59" cy="72.75" r="9.68"/><circle class="cls-4" cx="66.97" cy="338.17" r="9.68"/><circle class="cls-4" cx="596.21" cy="332.05" r="9.68"/><circle class="cls-4" cx="522.55" cy="154.08" r="9.68"/><circle class="cls-4" cx="147.82" cy="147.21" r="9.68"/><circle class="cls-4" cx="518.97" cy="524.55" r="9.68"/><circle class="cls-4" cx="140.63" cy="521.14" r="9.68"/><circle class="cls-4" cx="331.59" cy="602.47" r="9.68"/><circle class="cls-5" cx="331.59" cy="75.75" r="9.68"/><circle class="cls-5" cx="66.97" cy="341.17" r="9.68"/><circle class="cls-5" cx="596.21" cy="335.05" r="9.68"/><circle class="cls-5" cx="331.59" cy="605.47" r="9.68"/><circle class="cls-5" cx="522.55" cy="157.08" r="9.68"/><circle class="cls-5" cx="147.82" cy="150.21" r="9.68"/><circle class="cls-5" cx="518.97" cy="527.55" r="9.68"/><circle class="cls-5" cx="140.63" cy="524.14" r="9.68"/></g><rect class="cls-6" width="667.98" height="667.98"/></g></g></svg>