<?xml version="1.0" encoding="utf-8"?>
<!-- Generator: Adobe Illustrator 24.0.3, SVG Export Plug-In . SVG Version: 6.00 Build 0)  -->
<svg version="1.1" id="Calque_1" xmlns="http://www.w3.org/2000/svg" xmlns:xlink="http://www.w3.org/1999/xlink" x="0px" y="0px"
	 viewBox="0 0 41 28.3" style="enable-background:new 0 0 41 28.3;" xml:space="preserve">
<style type="text/css">
	.st0{fill:#EDCEA2;}
	.st1{fill:#FFFFFF;}
	.st2{fill:#95ACBF;}
	.st3{fill:#EFAE40;}
	.st4{fill:none;stroke:#EDCEA2;stroke-width:0.25;stroke-miterlimit:10;}
</style>
<title>abeille</title>
<g>
	<path class="st0" d="M27,11.2c0.1-0.2-1-0.6-1.2-0.8c-0.8-0.8-1.4-2.1-1.8-3.2c-0.4-1.2-0.5-2.4-1.1-3.6c-0.3-0.6-2.2-3.4-3-2.2
		c-0.2,0.3-0.1,0.7,0,1.1c0,0.5,0.1,0.9,0.1,1.4c0.1,0.8,0.3,1.7,0.7,2.5C21,7,21.7,7.8,22.2,8.5c0.5,0.7,0.7,1.6,1.2,2.3
		c0.3,0.4,0.5,0.6,0.9,0.8C24.8,12,26.7,11.7,27,11.2z"/>
	<path class="st0" d="M10.5,21.1c0,0.1-0.1-0.1-0.1-0.2c-0.2-0.1-0.3-0.2-0.5-0.2c-0.5-0.1-0.9,0.2-1.1,0.6c-0.6,1-0.1,3,1.1,3.2
		c1.3,0.3,1.1-1.4,1-2.2c0-0.3-0.1-0.6-0.2-0.9C10.5,21.3,10.5,21,10.5,21.1z"/>
	<path class="st1" d="M28.5,21c0,0,0,0.3,0,0.3c-0.1,0.2-0.1,0.5-0.2,0.7c-0.2,0.6-0.7,1.3-0.5,2c0,0.2,0.6,0,0.8,0
		c0.7,0,1.2,0.6,1.1,1.2c-0.1,0.5-0.6,0.6-1,0.7c-0.8,0.2-3,0.1-3.2-1c-0.3-1.5,1.6-2.4,2.4-3.3C28,21.5,28.3,21.3,28.5,21z"/>
	<path class="st2" d="M23.6,13.1c0,0.1-0.1,0.1-0.1,0.2c-0.1,0.1-0.1,0.1,0-0.1C23.5,13.2,23.6,13.1,23.6,13.1z"/>
	<path class="st1" d="M27.9,22.7c-0.3,0.6-0.7,1.2-1.3,1.8c-0.1,0.1-0.2,0.2-0.3,0.3c-0.4,0.3-0.8,0.6-1.2,0.7
		c-1.4,0.5-3.5,0.2-5,0.3c-1.4,0.1-2.7,0.5-4.1,0.6c-1.4,0.1-4.1,0.1-5.1-1.2c-1.8-2.3-1.6-5.9,0.2-8.2c0.7-0.9,1.9-1.7,3-2.1
		c1.1-0.4,2.6-0.1,3.7,0c1.4,0.2,2.8-0.2,4.2-0.7c0.3-0.1,0.6-0.2,0.8-0.4c0.2-0.2,0.4-0.5,0.6-0.7c0.1-0.1,0.3-0.1,0.4-0.1
		c0.3,0,0.6,0.2,1,0.2c1.1,0.1,2.2,0.5,3.1,1.3c0.8,0.8,0.8,1.7,0.9,2.7c0,0.1,0,0.2,0,0.3c0,0.3,0.1,0.7,0.1,1
		C28.9,20.1,28.6,21.5,27.9,22.7z"/>
	<path class="st0" d="M28.8,18.7c-1-0.1-2-0.4-3-0.7c-0.8-0.3-1.7-0.6-2.1-1.4c0.9,0.3,1.8,0.6,2.8,0.8c0.5,0.1,1.1,0.1,1.6,0.1
		c0.2,0,0.4,0,0.6-0.1c0,0.1,0,0.2,0,0.3C28.8,18,28.8,18.4,28.8,18.7z"/>
	<path class="st1" d="M13.1,19.7c0,0,0.2-0.3,0.3-0.4c0.3-0.2,0.6-0.5,1-0.5c1.1-0.2,2,0,3,0.6c1.3,0.8,2.2,2.1,1.9,3.6
		c-0.1,0.5-0.5,1.2-0.8,1.6c-0.1,0.1-0.4,0.3-0.3,0.5c0.1,0.1,0.6,0.1,0.7,0.1c0.5,0,2.7,0.4,1.9,1.3c-0.6,0.8-1.8,0.6-2.7,0.8
		c-0.6,0.1-1.3,0-1.9,0c-1.7,0-4,0-5.1-1.6C11,25.4,11,25,10.9,24.7c-0.3-1.2-0.2-2.4,0.6-3.4c0.3-0.4,0.8-0.7,1.1-1.2
		c0.1-0.1,0.3-0.2,0.4-0.4C13,19.8,13.1,19.6,13.1,19.7z"/>
	<path class="st0" d="M26.6,24.5c-0.1,0.1-0.2,0.2-0.3,0.3c-0.2-0.3-1.3-0.3-1.6-0.3c-0.2,0-0.4,0.1-0.5-0.1c0-0.1,0-0.1,0-0.2
		c0-0.4,0.2-0.8,0.4-1.1c0.2-0.3,0.5-0.4,0.7-0.7c0.2-0.2,0.4-0.4,0.5-0.7c-0.2,0.7-0.3,1.4,0,2C26.2,24,26.4,24.2,26.6,24.5z"/>
	<path class="st0" d="M21.1,25.8c-0.2-0.3-0.5-0.6-0.8-0.8c-0.4-0.4-0.6-0.9-0.7-1.5c-0.1-0.5-0.2-1.1-0.2-1.6
		c-0.2,0.6-0.3,1.3-0.6,1.9c-0.3,0.6-0.7,1.1-1.2,1.5c0.1-0.1,0.5,0,0.6-0.1c0.2,0,0.4,0,0.6,0c0.4,0,0.8,0,1.2,0.1
		c0.3,0.1,0.7,0.1,0.9,0.4C20.9,25.7,21,25.7,21.1,25.8L21.1,25.8z"/>
	<path class="st1" d="M25.4,10.9C25.4,11,25.3,10.9,25.4,10.9c-0.4-0.1-0.7-0.3-1-0.4c-0.8-0.4-1.2-1.1-1.6-1.9
		c-1-1.9-2.2-4.8-4.2-5.8c-0.6-0.3-1.8-1-2.4-0.3c-0.5,0.5-0.1,1.6,0,2.1c0.2,0.8,0.6,1.6,1,2.4c0.5,0.8,1.1,1.6,1.8,2.3
		c1.1,1.1,2.4,1.7,3.6,2.6c0.3,0.2,0.4,0.5,0.7,0.7c0.6,0.5,1.3-0.6,1.7-1c0.1-0.1,0.2-0.3,0.4-0.4C25.4,11,25.4,10.9,25.4,10.9z"/>
	<path class="st1" d="M25.7,22.1c-0.1,0.2-0.3,0.3-0.5,0.4c-0.4,0.4-0.6,0.9-0.6,1.4c0,0.1-0.1,0.3,0,0.4c0,0.1,0.7,0.1,0.8,0.1
		c0.6,0.1,1.2,0.2,1.4,0.9c0.1,0.6-0.4,1-0.9,1.2c-0.9,0.4-2.7,0.5-3.5-0.2c-0.2-0.2-0.3-0.5-0.4-0.7c-0.1-0.2-0.4-0.4-0.5-0.6
		c-0.2-0.2-0.3-0.5-0.4-0.7c-0.6-2.1,1.6-2.4,3.1-2.6c0.3,0,1.6-0.1,1.6,0.2C25.9,21.9,25.8,22,25.7,22.1z"/>
	<path class="st1" d="M29.6,17.2c-0.7,0.6-1.7,0.7-2.5,0.6c-1.9-0.2-4.5-0.8-5.3-2.7c-0.6-1.3,0.1-3.1,1.2-4c0,0,0,0,0.1-0.1
		c0.1-0.1,0.2-0.2,0.3-0.2c0.1,0,0.1-0.1,0.2-0.1c0.2-0.1,0.5-0.2,0.8-0.3c1.1-0.2,2,0.2,3,0.6c0.3,0.1,0.6,0.3,0.9,0.4
		c0.1,0,0.2,0.2,0.3,0.2c0,0,0,0,0,0c0.1,0.1,0.3,0.3,0.4,0.4c0.3,0.3,0.7,0.7,0.9,1.1C30.4,14.3,30.9,16,29.6,17.2z"/>
	<path class="st0" d="M29.8,14.8c-0.3-0.1-1-0.1-1.2,0.1c-0.1,0.1-0.3,0.3-0.3,0.4c0.1,0.1,0.3,0.3,0.4,0.3c0.1,0.1,0.6,0.5,0.7,0.5
		c0.1,0,0.3-0.4,0.3-0.5c0.1-0.1,0.4-0.5,0.3-0.7c-0.1-0.2-0.6-0.3-0.8-0.2"/>
	<path class="st3" d="M26.4,13.9c0,0.3-0.2,0.6-0.4,0.6c-0.2,0-0.4-0.3-0.4-0.6c0-0.3,0.2-0.6,0.4-0.6
		C26.2,13.3,26.4,13.6,26.4,13.9z"/>
	<path class="st4" d="M29.4,16.2c0,0.1,0.1,0.3,0.2,0.4c0.1,0.1,0.3,0.2,0.4,0.1c0.1,0,0.2-0.1,0.3-0.3c0.1-0.1,0.1-0.3,0.1-0.4"/>
	<path class="st4" d="M29.3,16.1c0,0.3-0.1,0.6-0.3,0.8c-0.2,0.2-0.5,0.3-0.7,0.4c-0.3,0-0.6-0.1-0.7-0.4c-0.2-0.2-0.2-0.5-0.2-0.8"
		/>
	<path class="st4" d="M28.5,16.1c-0.9-0.2-1.8-0.2-2.7,0.2c-0.3,0.2-0.7,0.4-0.8,0.7"/>
	<path class="st4" d="M28,16.5c-0.9-0.1-1.8,0.3-2.4,0.9"/>
	<path class="st4" d="M30,15.9c0.8-0.4,1.7-0.6,2.6-0.6"/>
	<path class="st4" d="M30.1,16.3c0.5-0.1,1-0.2,1.6-0.1"/>
</g>
</svg>
