<svg xmlns="http://www.w3.org/2000/svg" viewBox="0 0 667.98 667.98"><defs><style>.cls-1{fill:none;}.cls-2{fill:#efefef;}</style></defs><title>Fichier 14</title><g id="Calque_2" data-name="Calque 2"><g id="Calque_1-2" data-name="Calque 1"><g id="NUAGE"><circle id="TERRE" class="cls-1" cx="333.99" cy="333.7" r="131.07"/><g id="NUAGE1"><circle class="cls-2" cx="348.56" cy="205.41" r="5.98"/><circle class="cls-2" cx="334.31" cy="200.38" r="11"/><circle class="cls-2" cx="323.53" cy="204.49" r="6.9"/><polygon class="cls-2" points="323.8 211.38 348.56 211.38 347.51 204.47 323.3 203.6 323.8 211.38"/></g><g id="NUAGE1-2" data-name="NUAGE1"><circle class="cls-2" cx="322.95" cy="462.67" r="5.98"/><circle class="cls-2" cx="337.24" cy="467.6" r="11"/><circle class="cls-2" cx="347.99" cy="463.42" r="6.9"/><polygon class="cls-2" points="347.66 456.52 322.91 456.7 324 463.6 348.22 464.3 347.66 456.52"/></g><g id="NUAGE1-3" data-name="NUAGE1"><circle class="cls-2" cx="310.72" cy="216.63" r="5.98"/><circle class="cls-2" cx="296.47" cy="211.6" r="11"/><circle class="cls-2" cx="285.69" cy="215.71" r="6.9"/><polygon class="cls-2" points="285.96 222.61 310.72 222.61 309.67 215.7 285.46 214.83 285.96 222.61"/></g></g><rect class="cls-1" width="667.98" height="667.98"/></g></g></svg>