<?xml version="1.0" encoding="utf-8"?>
<!-- Generator: Adobe Illustrator 24.0.3, SVG Export Plug-In . SVG Version: 6.00 Build 0)  -->
<svg version="1.1" id="Calque_1" xmlns="http://www.w3.org/2000/svg" xmlns:xlink="http://www.w3.org/1999/xlink" x="0px" y="0px"
	 viewBox="0 0 41 28.3" style="enable-background:new 0 0 41 28.3;" xml:space="preserve">
<style type="text/css">
	.st0{fill-rule:evenodd;clip-rule:evenodd;fill:#EDCEA2;}
	.st1{fill-rule:evenodd;clip-rule:evenodd;fill:#EFAE40;}
	.st2{fill-rule:evenodd;clip-rule:evenodd;fill:#EFAE40;stroke:#FFFFFF;stroke-width:0.25;stroke-miterlimit:10;}
	.st3{fill-rule:evenodd;clip-rule:evenodd;fill:#FFFFFF;}
</style>
<title>abeille</title>
<g>
	<path class="st0" d="M28.8,21.6c0,0-2.3,2.8-3.1,3.2c-0.8,0.4-2.7-0.2-3.2-0.7C22,23.6,23,20.1,28.8,21.6z"/>
	<path class="st1" d="M28.7,21.6c-0.1,0.1-0.3,0.3-0.5,0.6c0-0.2,0.1-0.5,0.1-0.7C28.4,21.5,28.6,21.5,28.7,21.6L28.7,21.6
		L28.7,21.6z M26.8,23.8c-0.2,0.2-0.5,0.5-0.7,0.6c0.4-1,0.7-2.1,0.9-3.2c0.1,0,0.3,0,0.4,0C27.2,22.2,27,23,26.8,23.8L26.8,23.8z
		 M24.5,24.9c0.7-1,1.4-2.3,2-3.7c-0.2,0-0.3,0-0.4,0c-0.6,1.4-1.3,2.6-2,3.6C24.2,24.9,24.3,24.9,24.5,24.9L24.5,24.9z M22.7,24.3
		c-0.1-0.1-0.1-0.1-0.2-0.2c0,0-0.1-0.1-0.1-0.2c0.6-0.7,1.2-1.5,1.8-2.4c0.2-0.1,0.4-0.1,0.6-0.2C24.1,22.5,23.3,23.5,22.7,24.3z"
		/>
	<path class="st0" d="M22.3,21.4c0,0-3.3,2.1-4.1,2.3c-0.8,0.2-1.7,0.1-2.9-0.5c-1.3-0.6-3.8-1.7-3.8-2.8c0-1.1,1.3-2.6,2.4-2.7
		C15,17.7,22.3,21.4,22.3,21.4z"/>
	<path class="st1" d="M20.3,22.7c-0.2,0.1-0.3,0.2-0.5,0.3c0.2-0.8,0.4-1.7,0.4-2.6l0.4,0.2C20.6,21.3,20.4,22,20.3,22.7L20.3,22.7z
		 M18.3,23.8C18.2,23.8,18.2,23.8,18.3,23.8c-0.2,0-0.3,0.1-0.5,0.1c0.5-1.2,0.9-2.6,1.2-4.1c0.1,0.1,0.3,0.1,0.4,0.2
		C19.1,21.3,18.7,22.6,18.3,23.8L18.3,23.8z M16.3,23.7c0.7-1.1,1.6-2.5,2.2-4.1c-0.1-0.1-0.3-0.1-0.4-0.2c-0.6,1.6-1.5,3.1-2.2,4.2
		C16.1,23.6,16.2,23.6,16.3,23.7L16.3,23.7z M14.6,23c-0.1-0.1-0.3-0.1-0.4-0.2c0.9-1,1.9-2.4,2.7-3.9c0.1,0.1,0.3,0.1,0.4,0.2
		C16.5,20.6,15.4,21.9,14.6,23L14.6,23z M12.9,22.1c-0.1-0.1-0.2-0.2-0.4-0.2c1-0.9,2.1-2.1,3.1-3.6c0.1,0.1,0.3,0.1,0.4,0.2
		C15,19.9,13.9,21.2,12.9,22.1L12.9,22.1z M11.5,20.8c1-0.6,2.3-1.6,3.5-2.7c-0.2-0.1-0.3-0.1-0.4-0.1c-1,1-2.2,1.8-3.1,2.4
		c0,0.1,0,0.1,0,0.2C11.5,20.6,11.5,20.7,11.5,20.8z"/>
	<path class="st0" d="M19.4,9c0,0-1.7-2.1-2.4-2.2c-0.7-0.1-3.1,2.9-3.4,4c-0.2,1.1,0.4,2,0.4,2l5.3-3.5L19.4,9z"/>
	<path class="st1" d="M16,7.4c-0.1,0.1-0.2,0.2-0.3,0.3c0.6,0.7,1.3,1.6,2,2.7l0.3-0.2C17.4,9.1,16.6,8.2,16,7.4L16,7.4z M14.8,8.8
		c0.6,0.6,1.3,1.4,1.9,2.2l-0.3,0.2c-0.6-0.8-1.2-1.5-1.8-2.1C14.7,9,14.8,8.9,14.8,8.8L14.8,8.8z M13.9,10.2
		c0.6,0.4,1.2,0.9,1.8,1.4l-0.4,0.2c-0.6-0.5-1.1-0.9-1.7-1.3C13.8,10.5,13.8,10.4,13.9,10.2z"/>
	<path class="st0" d="M27.8,7.4c0,0-0.9-3.6-1.8-4.2c-0.9-0.5-2-0.6-3.8,0.7c-1.8,1.3-1.7,3.3-1.2,4.4C21.6,9.4,27.8,7.4,27.8,7.4z"
		/>
	<path class="st1" d="M24.8,2.9c-0.1,0-0.3,0-0.4,0c0.6,1.2,1.4,3,1.8,4.9c0.1,0,0.3-0.1,0.4-0.1C26.2,5.8,25.5,4.1,24.8,2.9
		L24.8,2.9z M23.1,3.4c0.8,1.2,1.7,2.8,2.2,4.7c-0.1,0-0.3,0.1-0.4,0.1c-0.6-1.8-1.4-3.4-2.2-4.6C22.8,3.6,23,3.5,23.1,3.4L23.1,3.4
		z M21.6,4.6c-0.1,0.1-0.2,0.2-0.3,0.3c0.8,0.9,1.8,2.1,2.6,3.5c0.1,0,0.3-0.1,0.4-0.1C23.5,6.8,22.4,5.5,21.6,4.6z"/>
	<path class="st2" d="M35,15.3c0-1.7,0.1-2.7-0.8-4.1c-1-1.7-3.2-3.9-6.5-4.7c-4.1-1-8.7,1.4-11.7,3.9c-3,2.5-3.8,2.2-4.5,2.2
		c0,0-1.5-0.8-2.3-2.3c-0.8-1.5-3.3-0.5-3.5,5.6c-0.2,6.1,2.3,4.4,2.9,3.9c0.6-0.5,1.6-1.7,2.9-1.7c0,0,1.6,0.1,4.4,1.9
		c2.8,1.8,6.1,2.5,11.2,2.5c4.4,0,6.4-2.4,7.4-4.4c0.2-0.3,0.4-0.9,0.4-1.6C35.2,16.1,35,15.6,35,15.3z"/>
	<path class="st1" d="M35.1,17.3c-1.7,2.8-3.9,2.9-7.4,3c-6.5,0.1-10.3-3.4-12.6-4.2c-2.3-0.8-4.2-0.7-5.3,0.6
		c-0.9,1.1-2.6,2.1-3.9,0c0,5.2,2.3,3.6,2.9,3.2c0.6-0.5,1.6-1.7,2.9-1.7c0,0,1.6,0.1,4.4,1.9c2.8,1.8,6.1,2.5,11.2,2.5
		c4.9,0,6.9-2.9,7.6-4.8C34.9,17.6,35,17.4,35.1,17.3z"/>
	<path class="st3" d="M29.7,7.1c-0.6-0.3-1.2-0.5-1.9-0.6c-0.1,0-0.3-0.1-0.4-0.1c-2,5-1.5,12.2-1,16.1c0.3,0,0.6,0,0.9,0
		c1.4,0,2.5-0.3,3.5-0.7C26.4,15.1,28.3,9.6,29.7,7.1L29.7,7.1z M21.5,7.1c-1.1,0.4-2.1,1-3.1,1.6c3.5,5.3,2.4,9.7,0.5,12.7
		c1.4,0.5,2.9,0.8,4.6,0.9C25,15.1,23,9.8,21.5,7.1L21.5,7.1z M13.3,12.4c-0.8,0.4-1.2,0.3-1.6,0.3c0,0-0.2-0.1-0.4-0.2
		c-0.3,2.2,0,4.5,0.3,5.8c0,0,0.1,0,0.1,0c0,0,0.4,0,1.1,0.2C12.5,16.2,12.9,13.9,13.3,12.4z"/>
	<path class="st3" d="M26.2,20.3c0.1,0.8,0.2,1.5,0.2,2.2c0.3,0,0.6,0,0.9,0c1.4,0,2.5-0.3,3.5-0.7c-0.4-0.6-0.7-1.1-1-1.7
		c-0.6,0.1-1.4,0.2-2.2,0.2C27.2,20.4,26.7,20.3,26.2,20.3L26.2,20.3z M23.9,20c-1.4-0.3-2.6-0.7-3.7-1.2c-0.3,1-0.8,1.8-1.3,2.6
		c1.4,0.5,2.9,0.8,4.6,0.9C23.7,21.5,23.8,20.8,23.9,20L23.9,20z M12.7,15.6c-0.6,0-1.1,0-1.5,0.1c0.1,0.9,0.2,1.8,0.3,2.4
		c0,0,0.1,0,0.1,0c0,0,0.4,0,1.1,0.2C12.7,17.5,12.7,16.6,12.7,15.6z"/>
	<path class="st0" d="M26.1,17c0,0-1.5,0.7-2,1.8c-0.6,1.1-2.3-1.2-2.4-2.4c-0.1-1.2,0.7-2.8,1.6-3.2c0.9-0.3-0.2,1.5,3.3,2.1
		c0,0,0.4,0.2,0.3,0.6C26.9,16.4,26.6,16.8,26.1,17z"/>
	<path class="st3" d="M31.3,12.2c-0.7,0.1-1.2,1.1-1.1,2.2c0.1,1.2,0.8,2.1,1.5,2c0.7-0.1,1.2-1.1,1.1-2.2
		C32.7,13,32,12.1,31.3,12.2z"/>
</g>
</svg>
