<svg xmlns="http://www.w3.org/2000/svg" viewBox="0 0 667.98 667.98"><defs><style>.cls-1{fill:#22c4f0;}.cls-2{fill:#86ce57;}.cls-3{fill:none;}</style></defs><title>Fichier 11</title><g id="Calque_2" data-name="Calque 2"><g id="Calque_1-2" data-name="Calque 1"><g id="TERRE"><circle id="TERRE-2" data-name="TERRE" class="cls-1" cx="333.99" cy="333.99" r="131.07"/><path id="TERRE-3" data-name="TERRE" class="cls-2" d="M318.68,464.41A131.18,131.18,0,0,1,206.13,364.28s18.72-8.37,31.22,10.64c5.35,8.14,2.56,20.1,6.76,29,4.48,9.44,13.5,14.46,22.63,18.59,10,4.51,19.23,9.08,27.92,15.89a111.52,111.52,0,0,1,18.42,18.11C313.78,457.36,317.66,464.3,318.68,464.41Z"/><path id="TERRE-4" data-name="TERRE" class="cls-2" d="M231.91,251.78a131.11,131.11,0,0,1,217.35,19.73"/><path id="TERRE-5" data-name="TERRE" class="cls-2" d="M432.13,287.31a94.44,94.44,0,0,1-12-7.91c-6.83-5.14-13.6-9-22.18-10.39a48.42,48.42,0,0,0-5.77-.6c-13.05-.55-25.85,3.61-37.82,8.83S330.88,288.8,318.51,293a112.42,112.42,0,0,1-79.93-3.21c-7.44-3.22-15.3-8.26-16.71-16.24-1.22-6.82,2.72-13.42,6.92-18.92,28.17-36.92,77-57,122.94-50.52,43.13,6,85.6,37,100.84,74.34,1.64,4,4.9,12-1.37,13.78-2.81.8-5.94,0-8.67-.71A47.84,47.84,0,0,1,432.13,287.31Z"/><path id="TERRE-6" data-name="TERRE" class="cls-2" d="M465.07,334a131,131,0,0,1-60.39,110.4c-8.56,5.49-17.42-2.37-21.68-8.21-16.48-22.56-33.23-30-60.6-29.43-20.66.41-41.88,0-41.87-26.22,3.73-30.53,21.77-46.34,60.1-50.79,17.21-2,30.73-4.62,46-13.16,7.28-4.08,14.95-8.8,23.36-10,10.07-1.42,15.28,4.19,23.89,7.42,7.6,2.85,14.13,2,21.76.41,4-.85,7.67-2.87,8.38,2.73A131.83,131.83,0,0,1,465.07,334Z"/></g><rect class="cls-3" width="667.98" height="667.98"/></g></g></svg>