<?xml version="1.0" encoding="utf-8"?>
<!-- Generator: Adobe Illustrator 24.0.3, SVG Export Plug-In . SVG Version: 6.00 Build 0)  -->
<svg version="1.1" id="Calque_1" xmlns="http://www.w3.org/2000/svg" xmlns:xlink="http://www.w3.org/1999/xlink" x="0px" y="0px"
	 viewBox="0 0 41 28.3" style="enable-background:new 0 0 41 28.3;" xml:space="preserve">
<style type="text/css">
	.st0{fill-rule:evenodd;clip-rule:evenodd;fill:#FFFFFF;}
	.st1{fill-rule:evenodd;clip-rule:evenodd;fill:#EDCEA2;}
	.st2{fill-rule:evenodd;clip-rule:evenodd;fill:#EFAE40;}
</style>
<title>abeille</title>
<g>
	<path class="st0" d="M15.6,12.9c0,0-3.4,0.7-4.5,4.1c-1.1,3.4-0.5,6.4,0.4,7.3c0.9,0.9,4.1-2.9,3.1-7.6
		C16.2,16.2,16.5,13.9,15.6,12.9z"/>
	<path class="st0" d="M3.2,10.9c0,0-1.6-1.7-1.2-4.5c0.4-2.9,3.7-4.2,6-4.7c2.4-0.5,4.1,2.7,4.4,5.2c0.3,2.5,2.1,3.3,2.1,3.3
		L25,13.1l9.8,1.9c0,0-1.2,4.7-6,5.5c-4.8,0.8-9.7,0-13.5-4.2c-3.8-4.2-4.5-4.6-7.2-4.5C5.5,11.9,4.3,11.9,3.2,10.9z"/>
	<path class="st0" d="M12.6,7.9c0.6,1.7,1.9,2.3,1.9,2.3L25,13.1l9.8,1.9c0,0-1.2,4.7-6,5.5c-4.8,0.8-9.7,0-13.5-4.2
		c-3.8-4.2-4.5-4.6-7.2-4.5c-1.1,0.1-1.9,0.1-2.6,0.1c0,0,2.2-0.1,4.5-0.8C12.4,10.3,12.6,7.9,12.6,7.9L12.6,7.9z"/>
	<path class="st0" d="M16.9,14.6c0,0-2.1,3.2-0.3,6.7c1.8,3.5,4.6,5.3,6.1,5.3c1.4,0,0.9-5.4-3.6-8.3C20.1,16.7,18.5,14.7,16.9,14.6
		z"/>
	<path class="st0" d="M28.7,17.4c0,0-0.1,3.4,3,5.3c3.1,1.9,6.1,1.9,7.2,1.3c1.1-0.6-1.9-4.6-6.7-4.8C32.1,17.5,29.9,16.7,28.7,17.4
		z"/>
	<path class="st1" d="M13.6,11.2c0.7,1.3,4.1,6.3,10.5,7.3c6.4,1,10.7-2.2,11.2-3.1c0.4-0.9,0.1-1.3-0.5-2.1
		c-0.6-0.8-1.4-3.2-2.7-5.8c-1.3-2.6-5.8-4.3-9.3-4.1c-3.5,0.1-6.2,3.4-7.4,4.3C13.9,8.8,12.4,9.1,13.6,11.2z"/>
	<path class="st1" d="M13.6,11.2c0.7,1.3,4.1,6.3,10.5,7.3c6.4,1,10.7-2.2,11.2-3.1c0.4-0.9,0.1-1.3-0.5-2.1c-0.4-0.6-1-2-1.8-3.8
		c-1,3.3-4,6.8-9.9,5.3c-5.1-1.3-7.2-4.4-8.1-7C13.7,8.8,12.5,9.2,13.6,11.2z"/>
	<path class="st2" d="M17.1,15.3c0.1,0.1,0.2,0.2,0.4,0.3c1.1-0.7,2.2-1.8,2.6-2.2c0.3,0.3,1,0.6,1.8,0.9c1.3,0.5,2.9,0.9,3.6,1
		c0.1,0,0.2,0,0.3,0c0.2,0.6,0.6,2.3,1.2,3.5c0.2,0,0.3,0,0.5,0c-0.6-1.1-1.1-3.1-1.3-3.7c1.2-0.7,2.7-3.1,3.1-3.8
		c0.9,0.4,3.1,0.3,4.7,0.2c-0.1-0.1-0.1-0.3-0.2-0.4c-1.6,0.1-3.9,0.2-4.4-0.2c0,0,0,0-0.1-0.1c0,0,0,0,0,0
		c-0.4-0.8-0.9-2.7-1.1-3.4c0.8-0.3,1.7-1.1,2.2-1.8c-0.1-0.1-0.2-0.2-0.4-0.3C29.5,6,28.6,6.9,27.9,7c0,0,0,0,0,0l0,0
		c-0.1,0-0.2,0-0.2,0c-0.6,0-1.6-0.3-2.4-0.5c-0.9-0.3-1.6-0.6-1.9-0.8c-0.3-0.2-0.6-1.3-0.8-2.2c-0.1,0-0.3,0-0.4,0
		c0.2,0.8,0.5,1.8,0.8,2.3c-0.6,0.4-2.6,1.8-3.6,2.1c0,0,0,0,0,0c-0.7,0.2-2.1-0.4-3.1-0.9c-0.1,0.1-0.2,0.2-0.4,0.3
		c1,0.5,2.5,1.1,3.4,1c0.1,0.9,0.3,3.7,0.7,4.6C19.5,13.4,18.3,14.6,17.1,15.3L17.1,15.3z M28.9,11c-0.4,0.6-2,3.3-3,3.7
		c0,0,0,0,0,0c0,0-0.1,0-0.1,0c-0.1,0-0.2,0-0.2,0c-0.7-0.1-2.2-0.5-3.5-0.9c-0.9-0.3-1.6-0.6-1.7-0.9l0,0c-0.3-0.6-0.6-3.9-0.7-4.7
		c1.1-0.4,3.1-1.8,3.6-2.1c0.4,0.2,1.1,0.6,1.9,0.8c0.9,0.3,1.8,0.5,2.5,0.6c0.1,0,0.1,0,0.2,0C27.9,8.1,28.4,10.2,28.9,11
		C28.9,11,28.9,11,28.9,11z"/>
	<path class="st2" d="M17.1,15.3c0.1,0.1,0.2,0.2,0.4,0.3c0.9-0.6,1.8-1.4,2.4-1.9c-0.1-0.1-0.3-0.2-0.4-0.2
		C18.9,13.9,18,14.7,17.1,15.3L17.1,15.3z M25.7,15.3c0.2,0.6,0.6,2.3,1.2,3.5c0.2,0,0.3,0,0.5,0c-0.5-1-1-2.7-1.2-3.5
		C26,15.3,25.9,15.3,25.7,15.3L25.7,15.3z M32.2,11.6c0.6,0,1.2,0,1.7-0.1c-0.1-0.1-0.1-0.3-0.2-0.4c-0.4,0-0.8,0.1-1.3,0.1
		C32.4,11.3,32.3,11.4,32.2,11.6z"/>
	<path class="st2" d="M4.9,3.6c0,0.2,0,0.3,0.1,0.3C5.2,4,6.6,3.7,7.6,4.4c0,0,0.1,0,0.2,0c0.1-0.1-0.2-1.3-2-1.5
		C5.3,2.8,5,3.2,4.9,3.6z"/>
	<path class="st2" d="M6.1,8.7c0.5,0,0.9-0.7,0.9-1.5S6.7,5.7,6.1,5.7c-0.5,0-0.9,0.7-0.9,1.5S5.6,8.7,6.1,8.7z"/>
	<path class="st2" d="M3.5,11.2c1.1-0.2,1.5-0.9,1.6-0.9c0.1,0,0.1,0.2,0.1,0.2c0,0.1,0,0.1,0.1,0.1c0,0,0.2-0.4,0-0.6
		C5.2,9.8,4.9,9.8,4.9,9.9c0,0,0,0.1,0,0.1C5,10,5,10.1,5,10.1c-0.5,0.6-1.3,0.7-1.8,0.8c0,0,0.1,0.1,0.1,0.1
		C3.3,11,3.4,11.1,3.5,11.2z"/>
</g>
</svg>
