<?xml version="1.0" encoding="utf-8"?>
<!-- Generator: Adobe Illustrator 24.0.3, SVG Export Plug-In . SVG Version: 6.00 Build 0)  -->
<svg version="1.1" id="Calque_1" xmlns="http://www.w3.org/2000/svg" xmlns:xlink="http://www.w3.org/1999/xlink" x="0px" y="0px"
	 viewBox="0 0 41 28.3" style="enable-background:new 0 0 41 28.3;" xml:space="preserve">
<style type="text/css">
	.st0{fill:#FFFFFF;}
	.st1{fill:#EFAE40;}
	.st2{fill:#EDCEA2;}
	.st3{fill:#EFAE40;stroke:#FFFFFF;stroke-width:0.1;stroke-miterlimit:10;}
	.st4{fill:#EDCEA2;stroke:#FFFFFF;stroke-width:0.1;stroke-miterlimit:10;}
</style>
<title>abeille</title>
<g>
	<g>
		<path class="st0" d="M9.2,4.9c0,0-0.8-1.6-2.7-1.4c0,0-0.9,0.2-1.3,0.2c0,0,0.7,3.6,3.9,1.7L9.2,4.9z"/>
		<path class="st1" d="M9.1,5c0,0-0.8-1-2.1-1c0,0-0.5,0-0.8,0.2c0,0,0.7,1.8,2.8,1L9.1,5z"/>
		<path class="st1" d="M7.1,4.3c0,0-0.4,0-0.7,0.2C6.3,4.3,6.3,4.2,6.3,4.2C6.5,4,7,4,7,4c1.3,0,2.1,1,2.1,1l0,0.1
			C8.9,4.9,8.1,4.2,7.1,4.3z"/>
	</g>
	<g>
		<path class="st0" d="M32.8,22.9l0-0.1c-0.2-0.6-0.4-1.1-0.5-1.8c-0.1-0.9,0.3-1.6,0.6-2.3c0.1-0.3,0.3-0.6,0.4-0.9
			c0.4-1.1,0.3-2.3-0.2-3.3c-0.5-0.8-1.2-1.3-2.2-1.5l0.1-0.6c1.1,0.2,2,0.8,2.6,1.8c0.6,1.1,0.7,2.5,0.3,3.8
			c-0.1,0.3-0.3,0.6-0.4,0.9c-0.3,0.7-0.6,1.2-0.6,2c0,0.6,0.2,1.1,0.4,1.6l0,0.1L32.8,22.9z"/>
	</g>
	<path class="st0" d="M28,18.8c0,0-1.1,0.9-0.3,2.5l0.3,1.1c-2.9,3.9-1.2,3.6-2.1,4.7l-1.3,0l1.5-4.1l-1.5-2.8"/>
	<polyline class="st0" points="11.6,19 12.5,22 12.9,24.5 12.9,25.8 12.3,27.1 13.6,27.1 13.6,26.4 13.9,25.8 14.7,19.9 	"/>
	<path class="st0" d="M11.4,10.9c0,0,0,3.4-0.5,4.2c0,0-2.4,5.3,6.4,6.8c0,0,8,1.6,12.3-1.1c1.6-1,3.1-3.9,2.7-5.9
		c-0.3-1.3-0.8-2.8-1.8-3.8c-1.2-1.3-3.1-0.5-4.6-0.2c0,0-5.8,0.8-9.4-1.3c0,0-2.5-1.2-2.5-3C14.2,6.6,11.4,9,11.4,10.9z"/>
	<path class="st2" d="M18.9,10.5c0.3,0.7,1.1,1.2,1.9,1.3c0.8,0.1,1.8-0.3,2.5,0.3c0.2,0.2,0.3,0.4,0.4,0.6c0.1,0.3,0.2,0.6,0.4,0.9
		c0.4,0.6,1.1,0.9,1.9,0.8c0.7-0.1,1.3-0.6,1.5-1.2c0.2-0.6,0.5-1.2,0.8-1.8c0.3-0.4,0.6-0.8,1.1-0.9c0.1,0,0.2,0,0.2-0.1
		c-1.1-0.2-2.3,0.2-3.4,0.4C26.1,10.9,22.2,11.4,18.9,10.5C18.8,10.5,18.8,10.5,18.9,10.5z"/>
	<path class="st0" d="M11.4,10.9C10,12.7,8,11.8,8,11.8c-3-1.5-1.6-3.1-1.6-3.1C8.1,7.2,8,5.1,8,5.1c0.6-2.4,3.2-2.1,3.2-2.1
		c3.2,0,3,3.7,3,3.7S14.1,8.7,11.4,10.9z"/>
	<path class="st2" d="M7,8.1c0.4,0.2,0.9,0.3,1.3,0.3c0.3,0,0.5-0.1,0.7-0.3c0.1-0.2,0.1-0.4,0.2-0.6c0-0.6,0-1.2,0.5-1.6
		c0.5-0.4,1.2-0.5,1.7-0.9c0.6-0.5,0.7-1.3,0.5-2c-0.2,0-0.4,0-0.6,0c0,0-2.6-0.3-3.2,2.1C8,5.1,8.1,6.7,7,8.1z"/>
	<path class="st2" d="M14.1,5.3c-0.4,0-0.7,0.1-0.9,0.5c-0.2,0.4,0,0.8,0.2,1.2c0.1,0.3,0.2,0.7,0.1,1c-0.2,0.5-0.8,0.5-1.2,0.7
		c-0.3,0.2-0.5,0.5-0.4,0.9c0,0.3,0.2,0.6,0.4,0.8c0.1-0.1,0.2-0.2,0.2-0.2c0,0,2.4-0.9,1.8-3.4C14.2,6.6,14.2,6,14.1,5.3z"/>
	<path class="st0" d="M31.4,18.6c0,0-1.3,1.4-0.5,2.9l0.3,1.1c-2.9,3.9-1.2,3.6-2.1,4.7l-1.3,0l1.5-4.1l-1.5-2.8"/>
	<path class="st0" d="M31.4,18.6c0,0-1.3,1.4-0.5,2.9l0.3,1.1c-2.9,3.9-1.2,3.6-2.1,4.7l-1.3,0l1.5-4.1l-1-1.8"/>
	<polyline class="st0" points="13.6,19.2 14.6,22.3 14.9,24.8 14.9,26 14.3,27.4 15.6,27.4 15.6,26.7 15.9,26.1 16.7,20.2 	"/>
	<path class="st3" d="M32.9,22.5c-0.2,0.1-0.4,0.4-0.5,0.6c-0.2,0.5,0.2,1.1,0.5,1.5c0,0,0.3,0.8,0,1.1c0,0,0.7-0.4,0.5-1.2
		c0,0,0.2,0.4,0.1,0.7c0-0.1,0.2-0.2,0.3-0.3c0.2-0.2,0.3-0.6,0.3-0.9c0-0.5-0.2-1.2-0.5-1.5C33.4,22.4,33.1,22.4,32.9,22.5z"/>
	<g>
		<path class="st0" d="M13.1,5.2c0,0,1.1-1.4,2.9-0.8c0,0,0.8,0.4,1.2,0.4c0,0-1.5,3.4-4.2,0.8L13.1,5.2z"/>
		<path class="st1" d="M13.1,5.4c0,0,1-0.8,2.3-0.5c0,0,0.5,0.1,0.7,0.4c0,0-1,1.6-3,0.4L13.1,5.4z"/>
	</g>
	<path class="st4" d="M11.2,9.9c-0.3-0.3-0.6-0.6-1-0.6c-0.3,0-0.7,0-1-0.1C8.6,9.2,8.2,8.8,7.8,8.5C7.7,8.3,7.5,8.2,7.2,8.1
		c-0.1,0-0.1,0-0.2,0c0,0-1.7,0.2-1.4,2.2c0,0,0.2,1.4,2,1.3l0,0c0,0,2.3,2.4,3.9-0.8C11.5,10.5,11.4,10.2,11.2,9.9z"/>
	<g>
		<path class="st1" d="M9.2,10.2C9.2,10.3,9.2,10.3,9.2,10.2C9.1,10.3,9,10.4,9,10.5c-0.1,0.1-0.2,0.2-0.2,0.4c0.1,0,0.3,0,0.4,0
			c0.2,0,0.3-0.2,0.3-0.3C9.6,10.4,9.4,10.1,9.2,10.2z"/>
		<path class="st1" d="M8.8,10.9c0,0.1,0-0.2,0-0.2c0.1-0.2,0.2-0.4,0.4-0.5c0.1,0,0.2,0,0.2,0c0,0-0.2,0-0.2,0
			C9,10.4,9,10.5,8.9,10.7C8.9,10.7,8.8,10.9,8.8,10.9z"/>
	</g>
	<g>
		<g>
			<g>
				<path class="st1" d="M7.2,9.7C7.3,9.7,7.3,9.7,7.2,9.7C7.3,9.8,7.4,9.9,7.4,10c0,0.1,0.1,0.3,0,0.4c-0.1-0.1-0.3-0.1-0.4-0.1
					C6.9,10.2,6.8,10,6.8,9.9C6.9,9.7,7.1,9.5,7.2,9.7z"/>
			</g>
			<path class="st1" d="M7.4,10.5c0,0.1,0.1-0.2,0.1-0.2c0-0.2,0-0.5-0.2-0.6c-0.1,0-0.2-0.1-0.2,0c0.1,0,0.1,0.1,0.2,0.1
				c0.1,0.1,0.1,0.3,0.2,0.5C7.4,10.3,7.4,10.4,7.4,10.5z"/>
		</g>
	</g>
	<g>
		<path class="st3" d="M9,1c0,0-1.7,1.2-0.6,3.2c0,0,0.4-0.6,1.1-1c0,0-1.2-1.3,0-2.1C9.4,1.2,9.4,0.9,9,1z"/>
	</g>
	<g>
		<path class="st3" d="M13.2,4.8c1.7-1.6,0.4-3.3,0.4-3.3c-0.3-0.2-0.4,0-0.4,0c0.9,1.1-0.7,1.9-0.7,1.9S12.3,4.2,13.2,4.8"/>
	</g>
	<path class="st2" d="M31.6,17.4c-0.1-0.3-0.5-0.7-0.9-0.6c-0.3,0.1-0.5,0.3-0.7,0.5c-0.2,0.2-0.4,0.5-0.6,0.7
		c-0.3,0.2-0.6,0.4-0.9,0.4c-0.3,0-0.5-0.2-0.7-0.3c-0.3-0.2-0.7-0.4-1.1-0.4c-0.4,0-0.9,0.1-1.2,0.3c-0.2,0.1-0.3,0.3-0.4,0.5
		c-0.1,0.1-0.1,0.2-0.1,0.4c0,0.2,0.2,0.2,0.4,0.3c0.2,0.1,0.4,0.1,0.5,0.3c0.7,0.7-0.4,1.3-0.9,1.6c-0.4,0.2-0.8,0.5-1,0.9
		c-0.1,0.2-0.1,0.3-0.2,0.5c2.1-0.1,4.3-0.5,5.9-1.6c0.7-0.5,1.4-1.3,1.9-2.2C31.6,18.2,31.7,17.8,31.6,17.4z"/>
	<path class="st0" d="M32.4,14.8c-0.3-1.3-0.8-2.8-1.8-3.8c-1.2-1.3-3.1-0.5-4.6-0.2c0,0-5.8,0.8-9.4-1.3c0,0-2.5-1.2-2.5-3
		c0,0-2.8,2.4-2.8,4.3c0,0,0,0.5,0,1.2c0,0,0.1-0.1,0.1-0.1c0.5-0.3,1.1-0.6,1.7-0.8c1.3-0.4,2.6-0.4,3.9-0.3
		c1.1,0.1,2.2,0.2,3.2,0.4c1,0.2,2.1,0.4,3.1,0.6c1.3,0.3,2.6,0.6,3.7,1.2c1.1,0.5,2.2,1.3,2.6,2.5c0.3,0.7,0.3,1.5,0.1,2.2
		c-0.1,0.9-0.5,1.8-1,2.6c-0.3,0.4-0.6,0.8-1,1.2c0.6-0.2,1.2-0.5,1.7-0.8C31.3,19.7,32.8,16.9,32.4,14.8z"/>
	<path class="st2" d="M15.7,19.8c0.2-0.3,0.3-0.7,0.3-1.1c0-0.2,0-0.5-0.1-0.8c-0.2-0.3-0.8-0.4-1.1-0.4c-0.4-0.1-0.9-0.2-1.2-0.5
		c-0.4-0.5-0.3-1-0.1-1.5c0.1-0.3,0.2-0.5,0.3-0.8c0-0.3-0.1-0.6-0.4-0.8c-0.4-0.3-0.9-0.4-1.3-0.3c-0.3,0.1-0.6,0.2-0.9,0.4
		c-0.1,0.5-0.2,0.9-0.3,1.1c0,0-1.8,3.9,3.2,5.9C14.7,20.8,15.3,20.4,15.7,19.8z"/>
	<g>
		<path class="st3" d="M13.6,26.7c0,0-0.6,0.3-1.2,0c0,0-0.4,0.2-0.5,0.6c0,0,0.8,0.3,1.3,0.1c0,0,0.2-0.3,0.4,0
			C13.6,27.5,13.8,27.2,13.6,26.7z"/>
	</g>
	<g>
		<path class="st3" d="M15.6,27.1c0,0-0.6,0.3-1.2,0c0,0-0.5,0.2-0.5,0.6c0,0,0.8,0.3,1.3,0.1c0,0,0.2-0.3,0.4,0
			C15.6,27.9,15.8,27.6,15.6,27.1z"/>
	</g>
	<g>
		<path class="st3" d="M26.1,26.7c0,0-0.7,0.3-1.4,0c0,0-0.5,0.2-0.5,0.6c0,0,0.9,0.3,1.5,0.1c0,0,0.3-0.3,0.4,0
			C26.1,27.4,26.4,27.2,26.1,26.7z"/>
	</g>
	<g>
		<path class="st3" d="M29.3,27.1c0,0-0.7,0.3-1.4,0c0,0-0.5,0.2-0.5,0.6c0,0,0.9,0.3,1.5,0.1c0,0,0.3-0.3,0.4,0
			C29.3,27.8,29.6,27.6,29.3,27.1z"/>
	</g>
</g>
<circle class="st1" cx="11.6" cy="6.5" r="0.5"/>
<circle class="st1" cx="8.9" cy="6.1" r="0.6"/>
</svg>
