<svg xmlns="http://www.w3.org/2000/svg" viewBox="0 0 160.53 29.27"><defs><style>.cls-1{fill:none;stroke:#e52b20;stroke-miterlimit:10;stroke-width:2px;}</style></defs><title>Fichier 1</title><g id="Calque_2" data-name="Calque 2"><g id="Calque_1-2" data-name="Calque 1"><polygon class="cls-1" points="15.39 2.26 19.48 10.55 28.62 11.88 22 18.33 23.57 27.44 15.39 23.14 7.21 27.44 8.77 18.33 2.15 11.88 11.29 10.55 15.39 2.26"/><polygon class="cls-1" points="112.71 2.26 116.8 10.55 125.94 11.88 119.33 18.33 120.89 27.44 112.71 23.14 104.53 27.44 106.09 18.33 99.47 11.88 108.62 10.55 112.71 2.26"/><polygon class="cls-1" points="145.15 2.26 149.24 10.55 158.38 11.88 151.77 18.33 153.33 27.44 145.15 23.14 136.97 27.44 138.53 18.33 131.91 11.88 141.06 10.55 145.15 2.26"/><polygon class="cls-1" points="80.27 2.26 84.36 10.55 93.5 11.88 86.89 18.33 88.45 27.44 80.27 23.14 72.09 27.44 73.65 18.33 67.03 11.88 76.18 10.55 80.27 2.26"/><polygon class="cls-1" points="47.83 2.26 51.92 10.55 61.06 11.88 54.45 18.33 56.01 27.44 47.83 23.14 39.65 27.44 41.21 18.33 34.59 11.88 43.74 10.55 47.83 2.26"/></g></g></svg>